<svg width="16" height="16" viewBox="0 0 16 16" fill="none" xmlns="http://www.w3.org/2000/svg">
<g clip-path="url(#clip0_5218_59999)">
<path d="M10.9997 0C10.1467 0.0589997 9.14967 0.604996 8.56867 1.31599C8.03867 1.96099 7.60268 2.91898 7.77267 3.84998C8.70467 3.87898 9.66766 3.31998 10.2257 2.59698C10.7477 1.92399 11.1427 0.971994 10.9997 0Z" fill="black"/>
<path d="M14.3705 5.36811C13.5515 4.34111 12.4006 3.74512 11.3136 3.74512C9.87857 3.74512 9.27157 4.43211 8.27458 4.43211C7.24658 4.43211 6.46559 3.74712 5.22459 3.74712C4.0056 3.74712 2.70761 4.49211 1.88461 5.76611C0.72762 7.56009 0.925619 10.9331 2.80061 13.8061C3.4716 14.8341 4.3676 15.99 5.53959 16C6.58259 16.01 6.87658 15.331 8.28958 15.324C9.70257 15.3161 9.97057 16.009 11.0116 15.998C12.1846 15.989 13.1295 14.7081 13.8005 13.6801C14.2815 12.9431 14.4605 12.5721 14.8335 11.7401C12.1206 10.7071 11.6856 6.8491 14.3705 5.36811Z" fill="black"/>
</g>
<defs>
<clipPath id="clip0_5218_59999">
<rect width="16" height="16" fill="white"/>
</clipPath>
</defs>
</svg>
