<svg width="16" height="16" viewBox="0 0 16 16" fill="none" xmlns="http://www.w3.org/2000/svg">
<g clip-path="url(#clip0_6108_20935)">
<path d="M2.41775 16H13.5822C14.7526 16 15.7037 15.0489 15.7037 13.8785V3.30665C15.7037 2.13628 14.7526 1.18516 13.5822 1.18516H12.7407V0.592582C12.7407 0.266652 12.474 0 12.1481 0C11.8222 0 11.5555 0.266652 11.5555 0.592582V1.18516H4.44443V0.592582C4.44443 0.266652 4.17773 0 3.8518 0C3.52587 0 3.25922 0.266652 3.25922 0.592582V1.18516H2.41775C1.24738 1.18516 0.296265 2.13628 0.296265 3.30665V13.8785C0.296265 15.0489 1.24738 16 2.41775 16ZM1.48148 3.30665C1.48148 2.79111 1.90221 2.37038 2.41775 2.37038H3.25922V2.96296C3.25922 3.28889 3.52587 3.55554 3.8518 3.55554C4.17773 3.55554 4.44439 3.28889 4.44439 2.96296V2.37038H11.5555V2.96296C11.5555 3.28889 11.8222 3.55554 12.1481 3.55554C12.474 3.55554 12.7407 3.28889 12.7407 2.96296V2.37038H13.5821C14.0977 2.37038 14.5184 2.79111 14.5184 3.30665V5.03704H1.48148V3.30665ZM1.48148 6.22221H14.5185V13.8785C14.5185 14.3941 14.0978 14.8148 13.5822 14.8148H2.41775C1.90221 14.8148 1.48148 14.3941 1.48148 13.8785V6.22221Z" fill="#31846C"/>
</g>
<defs>
<clipPath id="clip0_6108_20935">
<rect width="16" height="16" fill="white"/>
</clipPath>
</defs>
</svg>
