<svg width="57" height="16" viewBox="0 0 57 16" fill="none" xmlns="http://www.w3.org/2000/svg">
<path d="M3.53541 12.706V10.256H1.15541V8.674H3.53541V6.266H5.11741V8.674H7.51141V10.256H5.11741V12.706H3.53541ZM11.7207 13.154C11.4407 13.154 11.128 13.1353 10.7827 13.098C10.4467 13.0607 10.1154 13.0187 9.7887 12.972C9.47137 12.916 9.19604 12.8647 8.9627 12.818L9.1167 11.362C9.3127 11.39 9.55537 11.4227 9.8447 11.46C10.1434 11.488 10.4514 11.5113 10.7687 11.53C11.086 11.5487 11.3847 11.558 11.6647 11.558C12.3274 11.558 12.8127 11.3667 13.1207 10.984C13.438 10.6013 13.606 10.0227 13.6247 9.248C13.4287 9.32267 13.214 9.39267 12.9807 9.458C12.7567 9.52333 12.5327 9.57467 12.3087 9.612C12.094 9.64933 11.898 9.668 11.7207 9.668C10.7127 9.668 9.94737 9.43 9.4247 8.954C8.91137 8.478 8.6547 7.73133 8.6547 6.714C8.6547 6.042 8.79004 5.47733 9.0607 5.02C9.3407 4.55333 9.72804 4.20333 10.2227 3.97C10.7267 3.72733 11.3147 3.606 11.9867 3.606C12.7987 3.606 13.4614 3.79733 13.9747 4.18C14.4974 4.55333 14.88 5.09467 15.1227 5.804C15.3654 6.51333 15.4867 7.36733 15.4867 8.366C15.4867 9.29 15.3934 10.06 15.2067 10.676C15.0294 11.292 14.7774 11.782 14.4507 12.146C14.124 12.51 13.7274 12.7713 13.2607 12.93C12.8034 13.0793 12.29 13.154 11.7207 13.154ZM11.9167 8.114C12.1127 8.114 12.318 8.09533 12.5327 8.058C12.7474 8.01133 12.9527 7.96 13.1487 7.904C13.3447 7.83867 13.508 7.78267 13.6387 7.736C13.6294 7.22267 13.5734 6.77467 13.4707 6.392C13.368 6.00933 13.1954 5.71067 12.9527 5.496C12.7194 5.28133 12.3974 5.174 11.9867 5.174C11.5014 5.174 11.1234 5.314 10.8527 5.594C10.5914 5.874 10.4607 6.24733 10.4607 6.714C10.4607 7.19933 10.582 7.554 10.8247 7.778C11.0767 8.002 11.4407 8.114 11.9167 8.114ZM19.99 13.154C18.786 13.154 17.904 12.7387 17.344 11.908C16.784 11.0773 16.504 9.906 16.504 8.394C16.504 7.498 16.5927 6.74667 16.77 6.14C16.9567 5.524 17.2133 5.034 17.54 4.67C17.876 4.29667 18.2727 4.026 18.73 3.858C19.1873 3.69 19.6913 3.606 20.242 3.606C20.5313 3.606 20.844 3.62467 21.18 3.662C21.5253 3.69933 21.8613 3.746 22.188 3.802C22.5147 3.84867 22.79 3.89533 23.014 3.942L22.86 5.384C22.664 5.36533 22.4167 5.342 22.118 5.314C21.8287 5.286 21.5253 5.26267 21.208 5.244C20.8907 5.216 20.5873 5.202 20.298 5.202C19.6633 5.202 19.1873 5.40267 18.87 5.804C18.5527 6.196 18.3847 6.76067 18.366 7.498C18.4593 7.47 18.576 7.43733 18.716 7.4C18.8653 7.35333 19.024 7.30667 19.192 7.26C19.3693 7.204 19.5467 7.162 19.724 7.134C19.9013 7.09667 20.0693 7.078 20.228 7.078C21.264 7.078 22.0387 7.32067 22.552 7.806C23.0747 8.282 23.336 9.03333 23.336 10.06C23.336 10.7507 23.2007 11.3247 22.93 11.782C22.6593 12.2393 22.2767 12.5847 21.782 12.818C21.2873 13.042 20.69 13.154 19.99 13.154ZM19.99 11.586C20.5033 11.586 20.886 11.4553 21.138 11.194C21.3993 10.9233 21.53 10.5453 21.53 10.06C21.53 9.57467 21.3993 9.22 21.138 8.996C20.8767 8.76267 20.508 8.646 20.032 8.646C19.836 8.646 19.6307 8.66467 19.416 8.702C19.2013 8.73933 19.0007 8.79067 18.814 8.856C18.6273 8.912 18.4733 8.968 18.352 9.024C18.3613 9.51867 18.4173 9.962 18.52 10.354C18.6227 10.7367 18.7907 11.04 19.024 11.264C19.2667 11.4787 19.5887 11.586 19.99 11.586ZM27.7693 13.154C26.5653 13.154 25.6833 12.7387 25.1233 11.908C24.5633 11.0773 24.2833 9.906 24.2833 8.394C24.2833 7.498 24.372 6.74667 24.5493 6.14C24.736 5.524 24.9926 5.034 25.3193 4.67C25.6553 4.29667 26.052 4.026 26.5093 3.858C26.9666 3.69 27.4706 3.606 28.0213 3.606C28.3106 3.606 28.6233 3.62467 28.9593 3.662C29.3046 3.69933 29.6406 3.746 29.9673 3.802C30.294 3.84867 30.5693 3.89533 30.7933 3.942L30.6393 5.384C30.4433 5.36533 30.196 5.342 29.8973 5.314C29.608 5.286 29.3046 5.26267 28.9873 5.244C28.67 5.216 28.3666 5.202 28.0773 5.202C27.4426 5.202 26.9666 5.40267 26.6493 5.804C26.332 6.196 26.164 6.76067 26.1453 7.498C26.2386 7.47 26.3553 7.43733 26.4953 7.4C26.6446 7.35333 26.8033 7.30667 26.9713 7.26C27.1486 7.204 27.326 7.162 27.5033 7.134C27.6806 7.09667 27.8486 7.078 28.0073 7.078C29.0433 7.078 29.818 7.32067 30.3313 7.806C30.854 8.282 31.1153 9.03333 31.1153 10.06C31.1153 10.7507 30.98 11.3247 30.7093 11.782C30.4386 12.2393 30.056 12.5847 29.5613 12.818C29.0666 13.042 28.4693 13.154 27.7693 13.154ZM27.7693 11.586C28.2826 11.586 28.6653 11.4553 28.9173 11.194C29.1786 10.9233 29.3093 10.5453 29.3093 10.06C29.3093 9.57467 29.1786 9.22 28.9173 8.996C28.656 8.76267 28.2873 8.646 27.8113 8.646C27.6153 8.646 27.41 8.66467 27.1953 8.702C26.9806 8.73933 26.78 8.79067 26.5933 8.856C26.4066 8.912 26.2526 8.968 26.1313 9.024C26.1406 9.51867 26.1966 9.962 26.2993 10.354C26.402 10.7367 26.57 11.04 26.8033 11.264C27.046 11.4787 27.368 11.586 27.7693 11.586Z" fill="black"/>
<g clip-path="url(#clip0_6032_19388)">
<mask id="mask0_6032_19388" style="mask-type:alpha" maskUnits="userSpaceOnUse" x="36" y="0" width="21" height="16">
<path d="M55 0.5H38C36.8954 0.5 36 1.39543 36 2.5V13.5C36 14.6046 36.8954 15.5 38 15.5H55C56.1046 15.5 57 14.6046 57 13.5V2.5C57 1.39543 56.1046 0.5 55 0.5Z" fill="white"/>
</mask>
<g mask="url(#mask0_6032_19388)">
<path d="M55 0.5H38C36.8954 0.5 36 1.39543 36 2.5V13.5C36 14.6046 36.8954 15.5 38 15.5H55C56.1046 15.5 57 14.6046 57 13.5V2.5C57 1.39543 56.1046 0.5 55 0.5Z" fill="#00773C"/>
<path fill-rule="evenodd" clip-rule="evenodd" d="M51.9999 10.4998V9.49976H40.9999L42.9999 10.4998H48.9999C48.9999 11.0518 49.6719 11.4998 50.4999 11.4998C51.3279 11.4998 51.9999 11.0518 51.9999 10.4998ZM44.7299 4.40576C44.7179 4.40576 44.6999 4.41176 44.6769 4.42576C44.6229 4.46176 44.5169 4.57276 44.5129 4.70076C44.5099 4.77376 44.4959 4.77376 44.5429 4.82076C44.5769 4.86876 44.6129 4.86476 44.6809 4.82776C44.7209 4.79776 44.7339 4.78076 44.7479 4.73176C44.7639 4.65176 44.6609 4.77176 44.6479 4.67976C44.6249 4.59576 44.6909 4.55976 44.7529 4.47976C44.7549 4.43976 44.7549 4.40976 44.7299 4.40776V4.40576ZM45.7329 4.41076C45.7129 4.41476 45.6899 4.44076 45.6569 4.49876C45.6339 4.56076 45.5329 4.65476 45.6069 4.84876C45.6649 4.97176 45.6899 5.17076 45.6629 5.39376C45.6209 5.45676 45.6129 5.47876 45.5579 5.54176C45.4819 5.62476 45.3979 5.60376 45.3359 5.57176C45.2759 5.53176 45.2299 5.51176 45.2029 5.38576C45.2079 5.18576 45.2199 4.85376 45.1829 4.78376C45.1289 4.67576 45.0389 4.71376 45.0009 4.74676C44.8179 4.91676 44.7269 5.19976 44.6709 5.42676C44.6209 5.59076 44.5659 5.54276 44.5279 5.47676C44.4349 5.38876 44.4279 4.70676 44.3159 4.81976C44.1359 5.33376 44.4189 5.89676 44.6159 5.84176C44.7559 5.90176 44.8459 5.63176 44.9039 5.33676C44.9439 5.25376 44.9739 5.24376 44.9939 5.28676C44.9889 5.67876 45.0239 5.76676 45.1239 5.88476C45.3479 6.05876 45.5339 5.90676 45.5489 5.89276L45.7239 5.71876C45.7639 5.67876 45.8139 5.67476 45.8689 5.71076C45.9229 5.76076 45.9159 5.84376 46.0289 5.90076C46.1269 5.94076 46.3319 5.91076 46.3789 5.82776C46.4439 5.71776 46.4589 5.67976 46.4889 5.63776C46.5349 5.57776 46.6139 5.60476 46.6139 5.62376C46.6069 5.65876 46.5609 5.69376 46.5919 5.75376C46.6469 5.79376 46.6599 5.76776 46.6919 5.75876C46.8059 5.70476 46.8919 5.45676 46.8919 5.45676C46.8969 5.36476 46.8449 5.37176 46.8119 5.39076C46.7669 5.41776 46.7649 5.42676 46.7219 5.45376C46.6649 5.46176 46.5569 5.49876 46.5039 5.41576C46.4489 5.31576 46.4489 5.17776 46.4069 5.07576C46.4069 5.06976 46.3339 4.91876 46.4009 4.90976C46.4339 4.91576 46.5079 4.93476 46.5189 4.87376C46.5549 4.81376 46.4419 4.64376 46.3649 4.55976C46.2989 4.48676 46.2069 4.47776 46.1179 4.55176C46.0549 4.60976 46.0649 4.67376 46.0519 4.73476C46.0369 4.80476 46.0399 4.89176 46.1119 4.98476C46.1739 5.10676 46.2869 5.26476 46.2489 5.48676C46.2489 5.48676 46.1839 5.59276 46.0689 5.57876C46.0189 5.56876 45.9409 5.54876 45.8989 5.23876C45.8689 5.00576 45.9069 4.67876 45.8089 4.52576C45.7859 4.46876 45.7669 4.41276 45.7349 4.41576L45.7329 4.41076ZM45.4149 4.43676C45.3849 4.43976 45.3519 4.47476 45.3249 4.54176C45.3019 4.59376 45.2729 4.86176 45.2779 4.86176C45.2579 4.94176 45.3609 4.97576 45.4079 4.87376C45.4779 4.68376 45.4779 4.60376 45.4819 4.52576C45.4719 4.46576 45.4449 4.43576 45.4149 4.43776V4.43676ZM46.5879 4.45676C46.5579 4.46076 46.5329 4.47876 46.5239 4.52476C46.5109 4.63076 46.5179 4.68976 46.5359 4.77876C46.5489 4.83876 46.6359 4.93676 46.6779 4.99476C46.8809 5.26776 47.0779 5.54176 47.2659 5.82476C47.2959 6.03676 47.3159 6.24276 47.3309 6.44876C47.3629 6.89876 47.3709 7.45876 47.3439 7.93376C47.4279 7.93676 47.5639 7.79676 47.6109 7.59376C47.6409 7.30976 47.6009 6.73376 47.5969 6.56576L47.5869 6.32776C47.8069 6.68776 48.0189 7.06776 48.2269 7.48376C48.3039 7.44776 48.2869 7.01876 48.2429 6.95876C48.0749 6.59876 47.8429 6.24276 47.7699 6.10576C47.7429 6.05576 47.6519 5.91876 47.5449 5.75976C47.5249 5.53176 47.5029 5.33976 47.4889 5.28176C47.4539 5.04176 47.5869 5.30876 47.5689 5.16976C47.5249 4.92976 47.3929 4.76776 47.2369 4.54776C47.1869 4.47776 47.1869 4.46176 47.1099 4.56576C47.0649 4.67076 47.0649 4.75876 47.0799 4.84076C47.0579 4.81076 47.0329 4.77676 46.9969 4.73276L46.7419 4.51676C46.7069 4.49176 46.6389 4.45376 46.5879 4.45676ZM50.0639 4.49376C50.0489 4.49176 50.0339 4.49876 50.0139 4.52576C49.9789 4.55576 49.9419 4.61276 49.9439 4.68576C49.9509 4.81076 49.9739 4.93976 49.9819 5.06576L49.9919 5.11576C49.9779 5.09976 49.9659 5.08576 49.9589 5.07976C49.7119 4.81976 50.0719 5.03576 49.9109 4.83676C49.7759 4.68676 49.7359 4.64076 49.6209 4.55076C49.5609 4.51476 49.5269 4.44276 49.5079 4.56476C49.4999 4.67176 49.4919 4.79676 49.4979 4.88676C49.4979 4.93676 49.5509 5.03176 49.5959 5.08676C49.7599 5.28976 49.9279 5.50476 50.0959 5.72876C50.1319 6.18576 50.1409 6.60476 50.1759 7.06276C50.1719 7.25876 50.1119 7.51876 50.0559 7.54276C50.0559 7.54276 49.9679 7.59276 49.9099 7.53776C49.8669 7.52076 49.6979 7.25476 49.6979 7.25476C49.6109 7.17476 49.5529 7.19776 49.4919 7.25476C49.3219 7.41876 49.2439 7.72676 49.1289 7.93876C49.0989 7.98576 49.0159 8.02676 48.9229 7.93476C48.6859 7.61076 48.8229 7.14976 48.7949 7.26876C48.5849 7.50676 48.6769 7.90076 48.7249 7.98576C48.7949 8.12576 48.8509 8.21576 48.9849 8.28276C49.1099 8.37276 49.2049 8.31776 49.2589 8.25276C49.3829 8.12476 49.3849 7.79576 49.4429 7.73076C49.4829 7.61076 49.5859 7.63076 49.6359 7.68476C49.6859 7.75476 49.7419 7.79976 49.8129 7.83776C49.9289 7.93976 50.0669 7.95776 50.2029 7.86476C50.2959 7.81276 50.3569 7.74476 50.4109 7.61076C50.4709 7.45476 50.4409 6.63476 50.4279 6.17876L50.6879 6.55476C50.7239 6.95476 50.7409 7.34976 50.7279 7.72776C50.7199 7.80276 50.9909 7.50376 50.9879 7.36176C50.9879 7.23876 50.9899 7.12576 50.9879 7.02176C51.1209 7.23176 51.2479 7.44476 51.3679 7.66176C51.4429 7.62176 51.4179 7.19876 51.3709 7.14176C51.2449 6.92976 51.0829 6.70176 50.9579 6.52376C50.9329 6.30076 50.8999 6.03776 50.8839 5.95676C50.8609 5.83076 50.8369 5.64176 50.8009 5.49276C50.7909 5.43576 50.7609 5.24976 50.7709 5.23276C50.7849 5.18976 50.8409 5.23276 50.8679 5.18476C50.9079 5.13976 50.7259 4.66476 50.6329 4.53076C50.5999 4.47076 50.5389 4.49076 50.4649 4.59076C50.3949 4.65476 50.4209 4.80276 50.4469 4.94376C50.5149 5.30376 50.5769 5.66776 50.6249 6.03376C50.5349 5.89876 50.4249 5.73676 50.3169 5.58176L50.3029 5.51176C50.3029 5.50376 50.2889 5.21676 50.2759 5.14876C50.2729 5.12076 50.2659 5.11276 50.2959 5.11676C50.3259 5.14276 50.3299 5.14376 50.3489 5.15276C50.3809 5.15676 50.4089 5.10476 50.3889 5.05576L50.0989 4.52176C50.0889 4.50876 50.0749 4.49676 50.0589 4.49476L50.0639 4.49376ZM41.0939 4.50376C41.0389 4.50176 40.9809 4.53376 41.0039 4.59876C40.9899 4.63376 41.1079 4.75176 41.1289 4.81676C41.1459 4.86376 41.1089 5.01176 41.1489 5.02676C41.1839 5.04176 41.2329 4.92276 41.2509 4.81376C41.2609 4.75376 41.2539 4.54776 41.1139 4.50576C41.1069 4.50376 41.0999 4.50376 41.0919 4.50276L41.0939 4.50376ZM51.3139 4.50376C51.3009 4.50576 51.2859 4.52376 51.2639 4.57376C51.2089 4.66376 51.1899 4.82376 51.2119 4.96376C51.3419 5.85376 51.4419 6.71576 51.4619 7.50376C51.4499 7.57976 51.4459 7.61976 51.4119 7.71376C51.3339 7.81376 51.2479 7.93776 51.1669 7.99776C51.0869 8.05776 50.9149 8.11576 50.8589 8.15976C50.6789 8.26176 50.6789 8.37976 50.8229 8.38476C51.0709 8.35476 51.3649 8.33476 51.5669 8.02976C51.6209 7.94476 51.6849 7.71276 51.6869 7.56976C51.7069 6.73976 51.6769 5.92476 51.5519 5.32376C51.5439 5.26376 51.5179 5.13076 51.5279 5.11376C51.5429 5.07176 51.6239 5.11676 51.6529 5.06976C51.6959 5.02576 51.4429 4.70276 51.3549 4.56476C51.3369 4.53076 51.3249 4.50176 51.3109 4.50476L51.3139 4.50376ZM48.7109 4.51776C48.7009 4.51976 48.6869 4.53576 48.6589 4.57276C48.5889 4.79876 48.5649 4.98276 48.5919 5.12476C48.7719 6.05476 48.9519 6.89976 48.9239 7.78476C49.0079 7.78476 49.1059 7.59176 49.1479 7.39976C49.1709 7.13476 49.1319 6.97376 49.1259 6.81976C49.1189 6.66376 48.9499 5.40376 48.9159 5.28676C48.8739 5.06476 49.0799 5.25676 49.0579 5.12876C48.9859 4.96476 48.8079 4.72876 48.7539 4.58576C48.7339 4.54776 48.7299 4.51276 48.7139 4.51576L48.7109 4.51776ZM42.3769 4.53576C42.3569 4.53976 42.3339 4.55776 42.3269 4.58576C42.3219 4.60576 42.3349 4.63876 42.3169 4.64876C42.3069 4.65876 42.2689 4.65176 42.2709 4.59876C42.2709 4.58076 42.2579 4.56276 42.2509 4.55176C42.2429 4.54776 42.2379 4.54676 42.2239 4.54676C42.2069 4.54676 42.2069 4.55176 42.1979 4.56676C42.1939 4.58076 42.1879 4.59476 42.1879 4.61076C42.1859 4.63076 42.1779 4.63576 42.1649 4.63876C42.1489 4.63876 42.1519 4.64076 42.1399 4.63176C42.1299 4.62476 42.1219 4.62176 42.1219 4.60776C42.1219 4.59276 42.1179 4.56776 42.1139 4.55976C42.1069 4.54976 42.0959 4.54576 42.0839 4.54276C42.0179 4.54276 42.0139 4.62076 42.0169 4.64876C42.0119 4.65476 42.0099 4.78876 42.0999 4.82676C42.2199 4.88476 42.4479 4.85976 42.4399 4.66476C42.4399 4.64776 42.4349 4.58976 42.4329 4.57476C42.4209 4.54476 42.3979 4.53476 42.3759 4.53776L42.3769 4.53576ZM44.0029 4.53776C43.9609 4.53976 43.9229 4.55176 43.8929 4.56776C43.8129 4.64476 43.7929 4.76776 43.8569 4.84476C43.9169 4.87476 43.9799 4.93476 43.9389 4.96976C43.7649 5.15476 43.3119 5.46576 43.2889 5.52276V5.52876H43.2929V5.53076C43.3159 5.54576 43.5999 5.54576 43.6309 5.53076H43.6329C43.7309 5.49376 44.1929 4.96576 44.1929 4.96576C44.1689 4.94576 44.1469 4.92976 44.1229 4.90876C44.0969 4.88676 44.0999 4.86476 44.1229 4.84276C44.2369 4.77676 44.2009 4.62976 44.1409 4.56276C44.0909 4.54076 44.0449 4.53276 44.0029 4.53576V4.53776ZM48.2529 4.53776C48.2409 4.54076 48.2259 4.55776 48.2029 4.60776C48.1479 4.69776 48.1109 4.85276 48.1159 4.99776C48.2339 5.81776 48.2699 6.53476 48.3479 7.35476C48.3539 7.43476 48.3419 7.54876 48.2899 7.59476C48.0939 7.79876 47.8129 8.04876 47.5069 8.16476C47.4739 8.20176 47.5889 8.35876 47.7369 8.35876C47.9849 8.32876 48.2029 8.19076 48.4069 7.82376C48.4599 7.73876 48.5549 7.55576 48.5569 7.41376C48.5769 6.58176 48.5169 5.93376 48.3909 5.33376C48.3839 5.27376 48.3889 5.20376 48.3989 5.18776C48.4149 5.16776 48.4689 5.18776 48.4989 5.14076C48.5409 5.09676 48.3849 4.73776 48.2969 4.60076C48.2789 4.56576 48.2689 4.53776 48.2529 4.53876V4.53776ZM41.6689 4.56476C41.6349 4.56876 41.6029 4.59476 41.5869 4.63476C41.5819 4.76476 41.5809 4.89476 41.5969 5.01676C41.6569 5.22976 41.6739 5.41676 41.7029 5.63376C41.7129 5.92576 41.5349 5.75976 41.5429 5.61576C41.5829 5.42776 41.5729 5.13276 41.5369 5.05776C41.5069 4.98276 41.4749 4.96476 41.4049 4.97776C41.3499 4.97376 41.2069 5.12776 41.1669 5.38776C41.1669 5.38776 41.1329 5.51976 41.1189 5.63776C41.0989 5.77076 41.0109 5.86576 40.9489 5.61976C40.8959 5.43976 40.8639 4.99976 40.7749 5.10176C40.7489 5.44576 40.7189 6.05176 41.0109 6.11376C41.3649 6.14776 41.1689 5.51576 41.2969 5.40076C41.3219 5.34576 41.3669 5.34476 41.3699 5.41576V5.95276C41.3659 6.12676 41.4799 6.17876 41.5699 6.21476C41.6629 6.20776 41.7239 6.21076 41.7599 6.30076L41.8049 7.23076C41.8049 7.23076 42.0189 7.29076 42.0289 6.70776C42.0389 6.36476 41.9589 6.07776 42.0059 6.01076C42.0079 5.94476 42.0919 5.94076 42.1499 5.97376C42.2429 6.03876 42.2839 6.11876 42.4279 6.08676C42.6479 6.02676 42.7779 5.92076 42.7809 5.75276C42.7709 5.59276 42.7509 5.43276 42.6809 5.27276C42.6909 5.24476 42.6409 5.16976 42.6509 5.14076C42.6889 5.20076 42.7489 5.19676 42.7609 5.14076C42.7249 5.01776 42.6669 4.90076 42.5729 4.85076C42.4959 4.78076 42.3829 4.79576 42.3409 4.93776C42.3209 5.10176 42.4009 5.29576 42.5209 5.45476C42.5449 5.51676 42.5809 5.61976 42.5649 5.71276C42.5019 5.74876 42.4389 5.73276 42.3849 5.67776C42.3849 5.67776 42.2119 5.54776 42.2119 5.51776C42.2589 5.22276 42.2219 5.18776 42.1969 5.10776C42.1789 4.99376 42.1249 4.95776 42.0819 4.87976C42.0379 4.83276 41.9789 4.83276 41.9519 4.87976C41.8739 5.01276 41.9099 5.29976 41.9659 5.42676C42.0059 5.54476 42.0679 5.61876 42.0389 5.61876C42.0149 5.68376 41.9649 5.66876 41.9289 5.59176C41.8789 5.43176 41.8669 5.19576 41.8669 5.08876C41.8519 4.95676 41.8349 4.67376 41.7469 4.60176C41.7239 4.56976 41.6969 4.55876 41.6699 4.56176L41.6689 4.56476ZM42.9109 4.56476C42.8939 4.56876 42.8739 4.57876 42.8509 4.58476C42.7759 4.60776 42.7059 4.67276 42.7279 4.79876C42.8179 5.33876 42.8749 5.75176 42.9639 6.29176C42.9769 6.35576 42.9239 6.43876 42.8559 6.43176C42.7399 6.35176 42.7109 6.19176 42.5129 6.19976C42.3689 6.19976 42.2049 6.35776 42.1849 6.50776C42.1609 6.62776 42.1529 6.75776 42.1849 6.86176C42.2849 6.98176 42.4069 6.96976 42.5129 6.94176C42.5999 6.90676 42.6729 6.82176 42.7029 6.84176C42.7229 6.87476 42.7009 7.15576 42.2929 7.37176C42.0409 7.48576 41.8409 7.51176 41.7329 7.30776C41.6669 7.17976 41.7389 6.69176 41.5749 6.80376C41.0889 8.05576 42.7119 8.22976 42.8929 6.85576C42.9049 6.81576 42.9399 6.77776 42.9659 6.78776C42.9759 6.79276 42.9859 6.80776 42.9899 6.83576C42.9519 8.07976 41.7339 8.16576 41.5279 7.77376C41.4759 7.68176 41.4609 7.47576 41.4559 7.35376C41.4459 7.27876 41.4279 7.23576 41.4059 7.21876C41.3559 7.18176 41.2899 7.27876 41.2759 7.44576C41.2559 7.58076 41.2609 7.61776 41.2609 7.74776C41.3269 8.73076 42.8939 8.30776 43.1489 7.49776C43.2749 7.07776 43.1459 6.76076 43.1889 6.72176L43.1919 6.71976H43.1949L43.1999 6.71776C43.3559 6.88576 43.5739 6.73776 43.6219 6.68076C43.6419 6.65076 43.6939 6.63076 43.7299 6.67076C43.8499 6.75676 44.0639 6.71576 44.1079 6.56076C44.1339 6.41076 44.1559 6.25676 44.1609 6.09576C44.0809 6.12076 44.0169 6.13876 43.9909 6.16576C43.9849 6.17276 43.9809 6.18076 43.9789 6.18876L43.9589 6.32176C43.9589 6.32676 43.9569 6.32976 43.9549 6.33176C43.9519 6.33876 43.9449 6.34376 43.9409 6.34676C43.9129 6.36176 43.8639 6.35376 43.8609 6.31276C43.8239 6.14276 43.6689 6.12076 43.5749 6.38576C43.5119 6.43576 43.3949 6.44576 43.3849 6.36976C43.3999 6.19176 43.3279 6.16776 43.1849 6.25176L43.0469 5.21176C43.1069 5.20876 43.1609 5.25176 43.2169 5.18376C43.1569 4.99976 43.0319 4.62576 42.9609 4.58976H42.9589L42.9489 4.57976C42.9489 4.57776 42.9459 4.57676 42.9439 4.57576L42.9399 4.56976C42.9359 4.56976 42.9319 4.56776 42.9299 4.56676C42.9229 4.56476 42.9169 4.56476 42.9099 4.56476H42.9109ZM47.7529 4.56876C47.6909 4.56676 47.6229 4.60576 47.6489 4.68376C47.6329 4.72676 47.7819 4.87076 47.8059 4.94876C47.8489 5.06876 47.7729 5.18576 47.8179 5.20276C47.8599 5.22076 47.9179 5.07776 47.9379 4.94476C47.9639 4.83676 47.8879 4.61676 47.7779 4.57176L47.7529 4.56976V4.56876ZM43.9799 4.69976C44.0079 4.69776 44.0419 4.72376 44.0599 4.75976C44.0769 4.79976 44.0679 4.83676 44.0399 4.84376C44.0099 4.85076 43.9719 4.82576 43.9539 4.78576C43.9359 4.74576 43.9439 4.70876 43.9739 4.70176H43.9799V4.69976ZM50.9769 4.88176C50.9199 4.87976 50.8569 4.92176 50.8829 5.00676C50.8689 5.05276 51.0029 5.20876 51.0259 5.29476C51.0459 5.35476 50.9959 5.55076 51.0359 5.56876C51.0739 5.58876 51.1259 5.43276 51.1459 5.28876C51.1579 5.20876 51.0999 4.93376 51.0009 4.88476C50.9939 4.88276 50.9859 4.88076 50.9779 4.88076L50.9769 4.88176ZM47.1069 4.97776C47.1139 5.00076 47.1189 5.02376 47.1219 5.04776C47.1339 5.09776 47.1439 5.14776 47.1539 5.19976C47.1099 5.13776 47.0739 5.08776 47.0569 5.06976C46.9569 4.94976 47.0589 4.99176 47.1069 4.97776ZM47.9999 5.41576C47.9779 5.41976 47.9569 5.43876 47.9499 5.46876C47.9439 5.48676 47.9579 5.51876 47.9399 5.52876C47.9299 5.53876 47.8899 5.53276 47.8929 5.47876C47.8929 5.46076 47.8799 5.44176 47.8729 5.43176C47.8649 5.42676 47.8599 5.42476 47.8459 5.42476C47.8289 5.42476 47.8289 5.42976 47.8199 5.44476C47.8159 5.45876 47.8099 5.47276 47.8099 5.48976C47.8099 5.50976 47.8019 5.51576 47.7879 5.51976C47.7719 5.51976 47.7749 5.51976 47.7619 5.51276C47.7539 5.50276 47.7449 5.50076 47.7449 5.48676C47.7449 5.47176 47.7419 5.44876 47.7369 5.43876C47.7299 5.42876 47.7199 5.42576 47.7069 5.42176C47.6419 5.42176 47.6369 5.49776 47.6409 5.52576C47.6369 5.53176 47.6339 5.66776 47.7239 5.70576C47.8459 5.76276 48.0739 5.73576 48.0639 5.54176C48.0639 5.52476 48.0589 5.46676 48.0579 5.45176C48.0449 5.42176 48.0219 5.41176 48.0009 5.41476L47.9999 5.41576ZM43.9299 5.45576C43.9159 5.45576 43.8959 5.45976 43.8729 5.47376C43.7659 5.53176 43.7249 5.70376 43.7929 5.80376C43.8529 5.89376 43.9529 5.86076 43.9659 5.86076C44.0709 5.87476 44.1329 5.66476 44.1329 5.66476C44.1329 5.66476 44.1359 5.60476 44.0129 5.71676C43.9589 5.72676 43.9529 5.70676 43.9389 5.67676C43.9269 5.62376 43.9289 5.56676 43.9539 5.51376C43.9659 5.48076 43.9539 5.45976 43.9299 5.45776V5.45576ZM49.6829 5.48276C49.6229 5.47976 49.5599 5.51876 49.5429 5.59976C49.5429 5.64776 49.5649 5.67376 49.5609 5.71776C49.5559 5.74276 49.5309 5.75776 49.4689 5.72976C49.4789 5.71976 49.4289 5.65176 49.4289 5.65176C49.3819 5.62176 49.3189 5.65176 49.2769 5.67976C49.2539 5.72176 49.2369 5.79276 49.2629 5.86476C49.3309 5.99176 49.5659 6.20776 49.6779 6.20976C49.6799 6.09576 49.6909 5.94376 49.6979 5.84976C49.6999 5.81376 49.7079 5.77476 49.7429 5.76576C49.7769 5.75576 49.8359 5.79976 49.8359 5.76276C49.8299 5.69076 49.8159 5.58276 49.7759 5.53276C49.7539 5.50276 49.7189 5.48476 49.6839 5.48276H49.6829ZM44.9199 5.87976L44.9169 5.88276C44.9169 5.88276 44.9149 5.88276 44.9139 5.88476C44.9019 5.89476 44.8879 5.91476 44.8569 5.93476C44.8039 5.99476 44.7949 6.03776 44.7969 6.15776C44.8009 6.17076 44.8969 6.44076 44.9799 6.62976C45.0359 6.82676 45.0869 7.05276 45.0499 7.26576C44.9199 7.54776 44.6599 7.80076 44.4069 7.93876C44.2769 7.97876 44.1669 7.96476 44.1369 7.93676C44.0629 7.88676 44.0619 7.79676 44.0669 7.78276V7.77976C44.2789 7.63176 44.5219 7.51176 44.7119 7.11276C44.7679 6.95976 44.7859 6.86776 44.7299 6.63276C44.7079 6.54276 44.6799 6.47276 44.6199 6.40876H44.6219C44.6579 6.39176 44.7519 6.46076 44.7669 6.41876C44.7439 6.30476 44.6669 6.15376 44.5819 6.07576C44.5059 6.00576 44.4219 5.99876 44.3539 6.06176C44.2759 6.10576 44.2599 6.26176 44.2969 6.39776C44.3389 6.49976 44.4519 6.51776 44.5319 6.72476C44.5339 6.73876 44.5589 6.87976 44.5189 6.93776C44.4849 7.03976 44.0639 7.37176 44.0339 7.39176L44.0309 7.39376L44.0289 7.39576H44.0269H44.0249V7.39276C44.0229 7.38476 44.0249 7.36276 44.0249 7.32976C44.0219 7.26776 44.0479 7.12676 44.0449 7.10176V7.09976C43.9049 7.18976 43.8579 7.46476 43.8329 7.54676C43.4799 7.78976 43.0799 7.97076 42.8489 8.21676C42.7289 8.40676 43.6769 8.00276 43.7869 7.95376L43.7899 7.95676C43.8119 7.97976 43.8129 8.05976 43.8759 8.13276C43.9759 8.26576 44.1839 8.34776 44.3879 8.29676C44.7299 8.17376 44.9279 7.94076 45.1279 7.68176C45.1559 7.64176 45.2009 7.60776 45.2429 7.63976C45.3799 7.94776 45.7779 8.16776 46.2909 8.18976C46.4109 8.04576 46.3539 7.97476 46.3059 7.94476C46.2909 7.93476 46.0509 7.84076 46.0129 7.74776C45.9899 7.66176 46.0469 7.58476 46.1609 7.52776C46.4909 7.48776 46.8149 7.44276 47.1289 7.34176C47.1319 7.23576 47.1939 7.07876 47.2359 7.00976C47.2659 6.96276 47.2829 6.95776 47.2899 6.95176V6.94976H47.2919V6.94676V6.93676L47.2379 6.90476L46.1849 6.90076C46.1719 6.89576 46.1629 6.89076 46.1569 6.88576L46.1549 6.88276C46.1549 6.88276 46.1529 6.88276 46.1529 6.88076C46.1529 6.87876 46.1509 6.87876 46.1509 6.87876V6.87976V6.87776V6.87576V6.87376L46.1529 6.87076C46.1579 6.86476 46.1709 6.85776 46.1859 6.85076C46.4379 6.81776 46.8839 6.74476 46.9139 6.31576C46.9089 6.09176 46.8179 5.94576 46.5439 5.90576C46.3419 5.92076 46.1979 6.11576 46.2209 6.32976C46.2109 6.38676 46.2409 6.49976 46.1809 6.51276C45.7949 6.54876 45.3729 6.79076 45.3589 6.96476H45.3569H45.3549H45.3529C45.3529 6.96676 45.3509 6.96676 45.3499 6.96676H45.3459H45.3439H45.3399C45.3149 6.95876 45.2829 6.91676 45.2879 6.85976C45.2729 6.55976 45.1749 6.21976 45.0229 5.95976C44.9679 5.90476 44.9429 5.88276 44.9289 5.87976H44.9259H44.9229H44.9209H44.9199ZM45.9279 6.03776C45.9079 6.04176 45.8849 6.05976 45.8779 6.08976C45.8729 6.10976 45.8879 6.14176 45.8699 6.15176C45.8599 6.16176 45.8199 6.15576 45.8219 6.10176C45.8219 6.08476 45.8089 6.06576 45.8019 6.05476C45.7939 6.04976 45.7889 6.04876 45.7759 6.04876C45.7589 6.04876 45.7579 6.05276 45.7489 6.06676C45.7439 6.08076 45.7389 6.09676 45.7389 6.11176C45.7369 6.13176 45.7289 6.13776 45.7159 6.13976C45.6999 6.13976 45.7039 6.14276 45.6909 6.13476C45.6829 6.12676 45.6729 6.12276 45.6729 6.10876C45.6729 6.09376 45.6699 6.06876 45.6659 6.05876C45.6589 6.05176 45.6479 6.04876 45.6359 6.04476C45.5689 6.04476 45.5659 6.11976 45.5689 6.14876C45.5639 6.15376 45.5609 6.28876 45.6509 6.32676C45.7709 6.38476 46.0609 6.35076 45.9909 6.16376C45.9909 6.14676 45.9859 6.08876 45.9849 6.07376C45.9719 6.04376 45.9489 6.03376 45.9269 6.03676L45.9279 6.03776ZM49.9929 6.20476H49.9829C49.9829 6.20476 49.4209 6.60476 49.4079 6.61876C49.3519 6.66876 49.3799 6.84176 49.4079 6.82176C49.4479 6.83676 50.0129 6.45376 50.0019 6.40876C50.0269 6.41076 50.0389 6.21176 49.9919 6.20376L49.9929 6.20476ZM46.4589 6.26476C46.4809 6.26176 46.5109 6.26976 46.5389 6.28476C46.5819 6.31076 46.6089 6.34676 46.6039 6.37476V6.37876C46.6019 6.37876 46.6019 6.37876 46.6019 6.38076V6.38276C46.6019 6.38276 46.5999 6.38276 46.5999 6.38476C46.5999 6.38676 46.5969 6.38876 46.5949 6.39076C46.5749 6.41076 46.5289 6.40676 46.4849 6.38076C46.4429 6.35776 46.4179 6.32076 46.4199 6.29476V6.29176L46.4249 6.28176C46.4249 6.28176 46.4249 6.27976 46.4269 6.27876L46.4319 6.27276C46.4389 6.26776 46.4479 6.26276 46.4589 6.26276V6.26476ZM41.5409 6.36476C41.2509 6.37076 40.8239 6.74676 40.8129 6.95476L41.7329 6.51476C41.6829 6.43876 41.7299 6.37076 41.5409 6.36476ZM42.4839 6.49476C42.5119 6.49676 42.5419 6.51076 42.5579 6.55076C42.5719 6.58776 42.5579 6.62576 42.5409 6.64476V6.64776C42.5269 6.66376 42.4849 6.65776 42.4539 6.65776C42.4169 6.65576 42.3989 6.64976 42.3769 6.61976C42.3649 6.58476 42.3969 6.55176 42.4119 6.52776L42.4189 6.51776C42.4289 6.50776 42.4489 6.49976 42.4689 6.49776L42.4819 6.49576L42.4839 6.49476ZM49.8839 6.61176C49.8309 6.61776 49.7819 6.66676 49.8039 6.74476C49.7899 6.79076 49.8739 6.95176 49.8969 7.03676C49.9169 7.09676 49.8709 7.26976 49.9119 7.28676C49.9499 7.30676 50.0489 7.18676 50.0459 7.03276C50.0559 6.95276 50.0179 6.66276 49.9189 6.61476C49.9069 6.61176 49.8949 6.61076 49.8829 6.61176H49.8839ZM43.5999 6.89576C43.5539 6.89876 43.5129 6.92276 43.5319 6.98776C43.5289 7.03376 43.6619 7.09076 43.6689 7.19776C43.6869 7.24376 43.6389 7.38776 43.6789 7.39976C43.7149 7.41476 43.7649 7.29976 43.7839 7.19576C43.7939 7.13776 43.7379 6.93576 43.6439 6.89876C43.6289 6.89476 43.6139 6.89376 43.5989 6.89476L43.5999 6.89576ZM45.4799 7.15176H45.4919C45.6099 7.18376 45.7819 7.18776 45.9319 7.20176C46.0549 7.21176 46.1149 7.30576 46.0019 7.34676C45.8879 7.38476 45.7789 7.41676 45.7789 7.57876C45.7929 7.65876 45.7889 7.70076 45.7769 7.71876C45.7769 7.72176 45.7739 7.72376 45.7729 7.72476C45.7729 7.72476 45.7729 7.72676 45.7709 7.72676V7.72876H45.7679L45.7609 7.73176H45.7559C45.7289 7.73676 45.6899 7.71176 45.6609 7.69576C45.5909 7.64576 45.3959 7.52576 45.3679 7.26576C45.3639 7.20576 45.4079 7.15576 45.4779 7.15076L45.4799 7.15176ZM40.8859 7.35176C40.8789 7.35176 40.8659 7.37376 40.8459 7.39876C40.6719 7.67376 40.6559 8.08476 40.7519 8.20876C40.8019 8.26576 40.8859 8.29176 40.9479 8.27376C41.0579 8.22676 41.1049 8.00576 41.0779 7.92576C41.0429 7.86876 41.0139 7.85976 40.9779 7.90776C40.9009 8.06276 40.8679 7.95576 40.8629 7.86776C40.8509 7.70476 40.8669 7.55276 40.8849 7.43276C40.8949 7.37276 40.8949 7.34976 40.8849 7.34976L40.8859 7.35176ZM46.7829 7.71376C46.7699 7.71376 46.7569 7.71576 46.7429 7.72376C46.7399 7.72376 46.6189 7.80376 46.5799 7.86176C46.5559 7.87976 46.5599 7.89476 46.5659 7.92676C46.5839 7.96976 46.6159 7.95676 46.6539 7.93676C46.7039 7.92876 46.7269 7.96176 46.7239 8.02076C46.7009 8.09576 46.7339 8.12276 46.7339 8.12776C46.7339 8.13176 46.7809 8.17276 46.8369 8.14076C46.9539 8.09576 47.0269 8.05076 47.1919 8.01576C47.2349 8.01576 47.2319 7.89976 47.1639 7.89576C47.0739 7.89976 46.9939 7.90576 46.9039 7.97576C46.8489 7.98776 46.8399 7.95376 46.8269 7.92376C46.8129 7.84976 46.8589 7.79776 46.8489 7.74176C46.8509 7.74476 46.8209 7.71776 46.7819 7.71576L46.7829 7.71376ZM50.5589 7.85376L50.4789 7.86176C50.4429 7.86876 50.4309 7.88476 50.4239 7.92876C50.4269 7.99376 50.4669 7.99076 50.5089 8.01676C50.5329 8.04676 50.5489 8.07476 50.5069 8.12676C50.4669 8.16176 50.4399 8.18176 50.3999 8.21676C50.3829 8.24876 50.3699 8.29676 50.4279 8.31276C50.5329 8.34276 50.7759 8.18476 50.7759 8.18276C50.8159 8.15276 50.8019 8.09576 50.7989 8.09576C50.7749 8.06976 50.7229 8.08576 50.6889 8.08076C50.6719 8.08076 50.6189 8.07276 50.6429 8.02476C50.6649 7.99476 50.6729 7.97776 50.6879 7.94076C50.7029 7.90476 50.6879 7.88076 50.6299 7.86076C50.5999 7.85476 50.5799 7.85276 50.5569 7.85376H50.5589ZM49.1059 11.7138C49.3759 11.7268 49.6279 11.7168 49.8959 11.7298C49.9399 11.7658 49.9189 11.8498 49.8909 11.8638L49.8859 11.8658H49.8829H49.8789L49.6529 11.8598V11.8468C49.6309 11.7848 49.4809 11.7888 49.4449 11.8368V11.8398C49.4429 11.8398 49.4419 11.8428 49.4419 11.8438L49.4399 11.8488V11.8608C49.3199 11.8758 49.2149 11.8568 49.0969 11.8528C49.0619 11.8098 49.0669 11.7328 49.1069 11.7128L49.1059 11.7138Z" fill="white"/>
<path d="M55 1H38C37.1716 1 36.5 1.67157 36.5 2.5V13.5C36.5 14.3284 37.1716 15 38 15H55C55.8284 15 56.5 14.3284 56.5 13.5V2.5C56.5 1.67157 55.8284 1 55 1Z" stroke="black" stroke-opacity="0.1"/>
</g>
</g>
<defs>
<clipPath id="clip0_6032_19388">
<rect width="21" height="15" fill="white" transform="translate(36 0.5)"/>
</clipPath>
</defs>
</svg>
