<svg width="12" height="12" viewBox="0 0 12 12" fill="none" xmlns="http://www.w3.org/2000/svg">
<path d="M11.675 6.46572L6.4875 11.6532C6.075 12.0657 5.36563 11.7751 5.36563 11.1876V9.65947C5.36563 9.48447 5.43437 9.31884 5.55937 9.19384L8.75313 6.00009L5.55937 2.80634C5.4375 2.68447 5.36563 2.51572 5.36563 2.34072V0.812593C5.36563 0.228218 6.07188 -0.0655317 6.4875 0.346968L11.675 5.53447C11.9313 5.79384 11.9313 6.20634 11.675 6.46572ZM6.44063 6.46572L1.25313 11.6532C0.840625 12.0657 0.13125 11.7751 0.13125 11.1876V9.65947C0.13125 9.48447 0.2 9.31884 0.325 9.19384L3.51875 6.00009L0.325 2.80634C0.203125 2.68447 0.13125 2.51572 0.13125 2.34072V0.812593C0.13125 0.228218 0.837501 -0.0655317 1.25313 0.346968L6.44063 5.53447C6.69688 5.79384 6.69688 6.20634 6.44063 6.46572Z" fill="#112C24"/>
</svg>
