<svg width="17" height="16" viewBox="0 0 17 16" fill="none" xmlns="http://www.w3.org/2000/svg">
<g clip-path="url(#clip0_5218_59990)">
<path d="M4.04594 9.66893L3.489 11.7481L1.45341 11.7911C0.845063 10.6628 0.5 9.3718 0.5 7.99993C0.5 6.67333 0.822625 5.42233 1.3945 4.3208H1.39494L3.20719 4.65305L4.00106 6.45443C3.83491 6.93883 3.74434 7.45883 3.74434 7.99993C3.74441 8.58718 3.85078 9.14983 4.04594 9.66893Z" fill="#FBBB00"/>
<path d="M16.3601 6.50537C16.452 6.98931 16.4999 7.48909 16.4999 7.99987C16.4999 8.57262 16.4397 9.13131 16.325 9.67021C15.9355 11.5041 14.9179 13.1054 13.5083 14.2386L13.5078 14.2381L11.2252 14.1217L10.9022 12.1049C11.8375 11.5564 12.5685 10.6979 12.9536 9.67021H8.67578V6.50537H16.3601Z" fill="#518EF8"/>
<path d="M13.5076 14.2382L13.5081 14.2386C12.1371 15.3406 10.3955 15.9999 8.49972 15.9999C5.45312 15.9999 2.80434 14.2971 1.45312 11.7911L4.04566 9.66895C4.72125 11.472 6.46059 12.7555 8.49972 12.7555C9.37619 12.7555 10.1973 12.5186 10.9019 12.105L13.5076 14.2382Z" fill="#28B446"/>
<path d="M13.6064 1.84175L11.0148 3.9635C10.2855 3.50769 9.42353 3.24437 8.50003 3.24437C6.41475 3.24437 4.64288 4.58678 4.00113 6.4545L1.39497 4.32088H1.39453C2.72597 1.75384 5.40816 0 8.50003 0C10.4411 0 12.2209 0.691437 13.6064 1.84175Z" fill="#F14336"/>
</g>
<defs>
<clipPath id="clip0_5218_59990">
<rect width="16" height="16" fill="white" transform="translate(0.5)"/>
</clipPath>
</defs>
</svg>
