<svg width="88" height="88" viewBox="0 0 88 88" fill="none" xmlns="http://www.w3.org/2000/svg">
<path d="M34.1661 0L0.5 19.4345V48.2379C0.5 52.2114 1.86652 56.0088 4.26868 59.044L4.58521 58.7275L9.59338 53.7193C8.5393 52.1141 7.94721 50.2149 7.94721 48.2379V23.7358L34.1661 8.59861L60.3809 23.7358V48.2379C60.3809 50.2149 59.7929 52.1141 58.7388 53.7193C57.9234 54.9629 56.8284 56.0313 55.5141 56.8139C55.469 56.8395 55.4281 56.8662 55.384 56.8918L48.8382 60.6717L44.8319 62.9838L34.1671 69.1423L23.5024 62.9838L20.9701 65.516V70.1226L30.4323 75.5856L34.1671 77.7419L37.902 75.5856L47.3642 70.1226L51.8325 67.5422L59.1086 63.3423C59.165 63.3085 59.2244 63.2757 59.2797 63.2419C60.9966 62.2257 62.5003 60.933 63.748 59.4404C66.3397 56.3427 67.8292 52.3876 67.8292 48.2399V19.4345L34.1661 0Z" fill="#112C24"/>
<path d="M58.3793 79.3994H17.5827V60.4761L37.981 40.0778L51.1474 53.2442L58.8572 48.7895L37.981 27.9146L8.9834 56.9122V87.9999H66.9787V65.9468L58.3793 70.9136V79.4018V79.3994Z" fill="#C69D67"/>
<path d="M37.1689 48.7915H32.5049V53.4555H37.1689V48.7915Z" fill="#112C24"/>
<path d="M37.1689 54.8867H32.5049V59.5507H37.1689V54.8867Z" fill="#112C24"/>
<path d="M43.4579 48.7915H38.7939V53.4555H43.4579V48.7915Z" fill="#112C24"/>
<path d="M43.4579 54.8867H38.7939V59.5507H43.4579V54.8867Z" fill="#112C24"/>
<path d="M37.1689 48.7915H32.5049V53.4555H37.1689V48.7915Z" fill="#112C24"/>
<path d="M43.4579 48.7915H38.7939V53.4555H43.4579V48.7915Z" fill="#112C24"/>
<path d="M37.1689 54.8867H32.5049V59.5507H37.1689V54.8867Z" fill="#112C24"/>
<path d="M43.4579 54.8867H38.7939V59.5507H43.4579V54.8867Z" fill="#112C24"/>
<path fill-rule="evenodd" clip-rule="evenodd" d="M85.4386 50.0907C85.4386 52.1132 83.7987 53.7519 81.7775 53.7519C79.7563 53.7519 78.1151 52.1119 78.1151 50.0907C78.1151 48.0695 79.755 46.4296 81.7775 46.4296C83.7999 46.4296 85.4386 48.0695 85.4386 50.0907ZM75.6157 61.8928H75.5864C75.492 61.8889 75.3976 61.8838 75.3045 61.8775V61.8749H75.2637C75.1324 61.866 75.0023 61.8545 74.8722 61.8405H74.8684C74.8174 61.8354 74.7664 61.8303 74.7167 61.8239H74.7065C74.6631 61.8188 74.621 61.8124 74.5777 61.8073H74.5713C74.4514 61.792 74.3328 61.7754 74.2143 61.7563H74.2104C74.0842 61.7359 73.9579 61.7129 73.833 61.6874H73.8279C73.8011 61.6823 73.773 61.6772 73.7462 61.6709H73.7411C73.7144 61.6658 73.6863 61.6594 73.6595 61.6543H73.657C73.606 61.6428 73.555 61.6313 73.504 61.6199H73.5014C73.3624 61.588 73.2247 61.5536 73.0882 61.5178L73.0831 61.5166C72.9633 61.4847 72.8434 61.4503 72.7248 61.4146L72.7184 61.4133C72.6457 61.3916 72.5718 61.3674 72.4991 61.3444C72.4647 61.3329 72.4302 61.3215 72.3958 61.31C72.3155 61.2832 72.2351 61.2551 72.1548 61.2258V61.2233H72.1484L72.1025 61.2067C71.9979 61.1684 71.8946 61.1289 71.7926 61.0881V61.0856H71.7863C71.7595 61.0753 71.7327 61.0639 71.7059 61.0524V61.0498H71.7008C71.674 61.0384 71.646 61.0269 71.6192 61.0154C71.5261 60.9772 71.4343 60.9364 71.3438 60.8955L71.3412 60.8943C71.2787 60.8662 71.2162 60.8369 71.1538 60.8076C71.002 60.7361 70.8528 60.6609 70.7049 60.5844H70.7023L70.6705 60.5678C70.6067 60.5347 70.5442 60.5002 70.4805 60.4658L70.4779 60.4645C70.4269 60.4365 70.3759 60.4071 70.3249 60.3791C70.2853 60.3561 70.2445 60.3332 70.205 60.3102C70.1757 60.2936 70.1476 60.2758 70.1183 60.2592C70.0902 60.2426 70.0609 60.2248 70.0329 60.2069C69.9869 60.1789 69.941 60.1508 69.8951 60.1215H69.8939C69.8301 60.082 69.7676 60.0412 69.7051 60.0004C69.6885 59.9889 69.6707 59.9774 69.6541 59.9672C69.6375 59.9557 69.6197 59.9455 69.6031 59.934H69.6018C69.5853 59.9226 69.5687 59.9124 69.5521 59.9009L69.5495 59.8996C69.533 59.8881 69.5164 59.8767 69.4998 59.8652C69.4003 59.7976 69.3034 59.7287 69.2065 59.6586H69.2052C69.1823 59.642 69.1593 59.6267 69.1377 59.6101V59.6076H69.1338C69.042 59.54 68.9515 59.4711 68.8609 59.401C68.8329 59.3793 68.8036 59.3564 68.7755 59.3347V59.3321H68.773C68.6454 59.2314 68.5192 59.1268 68.3955 59.021C68.3496 58.9815 68.3037 58.9407 68.2578 58.9011C68.2055 58.8552 68.1545 58.8093 68.1035 58.7634L68.0869 58.7481L68.0856 58.7468C67.8663 58.5466 67.6533 58.3388 67.4467 58.1245C67.3116 57.983 67.1789 57.8389 67.0502 57.6922C66.9507 57.5787 66.8525 57.464 66.7568 57.3479V57.3467C66.6625 57.2332 66.5707 57.1184 66.4814 57.0011C66.3934 56.8876 66.3067 56.7715 66.2225 56.6555C66.1932 56.616 66.1652 56.5752 66.1358 56.5356C66.095 56.4782 66.0555 56.4209 66.0147 56.3622C65.9675 56.2946 65.9216 56.2257 65.8757 56.1569V56.1543H65.8744C65.8629 56.1378 65.8527 56.1212 65.8413 56.1046V56.1021H65.84C65.8285 56.0855 65.8183 56.0676 65.8068 56.051C65.7176 55.9146 65.6321 55.7756 65.548 55.6366C65.4829 55.5282 65.4192 55.4198 65.358 55.3102V55.3076H65.3567C65.2853 55.1826 65.2177 55.0551 65.1501 54.9289V54.9276L65.1335 54.897V54.8932H65.1322C65.0545 54.7452 64.9805 54.596 64.9091 54.4468V54.4443H64.9078L64.8925 54.4111V54.4099C64.8326 54.2836 64.7752 54.1574 64.7204 54.0311V54.0298C64.7025 53.9903 64.6859 53.9508 64.6693 53.91V53.9087C64.64 53.8398 64.612 53.771 64.5839 53.7034V53.7021C64.5724 53.6741 64.561 53.646 64.5495 53.618V53.6154C64.538 53.5874 64.5265 53.5593 64.5163 53.5312V53.53C64.4551 53.3744 64.399 53.2188 64.3442 53.0632L64.3276 53.0135V53.011C64.3161 52.9778 64.3034 52.9434 64.2932 52.9089H51.4123V58.3426H47.1315V55.3522H43.1031V59.4558H38.3887V47.9599H64.3467C64.3633 47.8681 64.3799 47.775 64.3977 47.6819V47.6793C64.4028 47.6513 64.4092 47.6232 64.4156 47.5952C64.4322 47.5136 64.4487 47.4332 64.4666 47.3529V47.3503C64.4832 47.2764 64.4997 47.2011 64.5176 47.1272C64.5227 47.1029 64.5291 47.0813 64.5342 47.0583C64.5393 47.0341 64.5457 47.0111 64.5508 46.9894V46.9869C64.5724 46.9002 64.5954 46.8147 64.6196 46.7293V46.7255C64.6311 46.6859 64.6413 46.6464 64.6528 46.6082V46.6043C64.6642 46.5648 64.6757 46.5265 64.6872 46.487C64.7153 46.3939 64.7433 46.3021 64.7726 46.2103L64.7892 46.158V46.1555C64.7943 46.1389 64.8007 46.1223 64.8058 46.1057L64.8224 46.0534C64.8504 45.9718 64.8785 45.8915 64.9078 45.8112H64.9091V45.8073C64.9257 45.7627 64.9422 45.7181 64.9588 45.6734H64.9614V45.6671C64.9779 45.6224 64.9958 45.5791 65.0124 45.5344C65.0353 45.4758 65.0583 45.4184 65.0812 45.361C65.0978 45.3202 65.1144 45.2794 65.131 45.2399H65.1335V45.2335C65.1501 45.1952 65.1667 45.157 65.1833 45.1187H65.1845V45.1149C65.2343 45.0001 65.2865 44.8854 65.3401 44.7719L65.3567 44.7374C65.3618 44.7247 65.3682 44.7145 65.3733 44.703V44.7005L65.3898 44.6673V44.6648C65.4294 44.5844 65.4689 44.5041 65.5097 44.425L65.5276 44.3906C65.5671 44.3153 65.6066 44.2401 65.6487 44.1661C65.6933 44.0845 65.7392 44.0042 65.7851 43.9239H65.7877V43.92C65.8655 43.7861 65.9458 43.6548 66.0287 43.526C66.0389 43.5081 66.0504 43.4903 66.0606 43.4737H66.0631V43.4699C66.1307 43.3666 66.1996 43.2646 66.2697 43.1626C66.2978 43.1218 66.3246 43.0809 66.3539 43.0414H66.3564V43.0376C66.3845 42.9981 66.4138 42.9598 66.4419 42.9203C66.4929 42.8501 66.5452 42.7813 66.5974 42.7124C66.6191 42.6831 66.6421 42.655 66.6638 42.6257H66.6663V42.6232C66.739 42.5301 66.8142 42.4395 66.8908 42.349C66.9239 42.3069 66.9583 42.2674 66.9928 42.2278H66.994V42.2253C67.0948 42.108 67.1994 41.9932 67.3052 41.881L67.3218 41.8631L67.3371 41.8453H67.3383L67.3536 41.8274H67.3562V41.8249C67.4684 41.7076 67.5832 41.5941 67.6992 41.4818H67.7018V41.4793L67.7171 41.464H67.7184L67.7349 41.4461C67.8025 41.3811 67.8714 41.3186 67.9402 41.2561H67.9428V41.2536L67.9594 41.2383C68.0053 41.1975 68.0512 41.1567 68.0971 41.1171C68.171 41.0521 68.2463 40.9896 68.3215 40.9271C68.3496 40.9042 68.3776 40.8812 68.4057 40.8583H68.4082C68.4363 40.834 68.4656 40.8111 68.4937 40.7894C68.6059 40.7001 68.7207 40.6147 68.8367 40.5305H68.8405V40.528C68.8635 40.5114 68.8864 40.4948 68.9094 40.4783C68.9834 40.426 69.0573 40.3737 69.1338 40.3227C69.1504 40.3112 69.167 40.2997 69.1836 40.2883H69.1861C69.2027 40.2755 69.2193 40.2653 69.2371 40.2538H69.2384C69.255 40.2411 69.2728 40.2309 69.2907 40.2194C69.3532 40.1786 69.4169 40.1378 69.4807 40.0982C69.5088 40.0804 69.5368 40.0638 69.5636 40.046H69.5661V40.0434C69.5929 40.0268 69.621 40.0103 69.649 39.9937H69.6528V39.9911C69.6809 39.9746 69.7089 39.958 69.737 39.9414H69.7396C69.8186 39.8929 69.899 39.8483 69.9806 39.8024H69.9818C70.0558 39.7603 70.1298 39.7208 70.205 39.6813H70.2063C70.307 39.6277 70.409 39.5754 70.5123 39.5257H70.5187V39.5231C70.5289 39.518 70.5391 39.5129 70.5493 39.5091H70.5531C70.5646 39.5015 70.5748 39.4976 70.5863 39.4913H70.5876C70.7125 39.4313 70.8375 39.3739 70.965 39.3178H70.9688C71.0084 39.2987 71.0492 39.2821 71.0887 39.2655H71.09C71.2035 39.2171 71.317 39.1712 71.433 39.1265H71.4356C71.4802 39.1087 71.5261 39.0908 71.572 39.0743H71.5746C71.6549 39.0437 71.7352 39.0156 71.8156 38.9875L71.8653 38.9697H71.8679C71.8845 38.9633 71.8998 38.9582 71.9163 38.9518H71.9201C71.9354 38.9455 71.952 38.9391 71.9673 38.934H71.9712C71.9877 38.9276 72.0043 38.9225 72.0209 38.9161H72.0222C72.1522 38.8728 72.2849 38.8332 72.4175 38.795H72.42C72.4812 38.7771 72.5437 38.7593 72.6062 38.7427H72.61C72.721 38.7121 72.8332 38.6828 72.9467 38.656H72.9569V38.6534L73.0206 38.6381H73.027C73.2183 38.5922 73.4121 38.5527 73.6073 38.517H73.6149C73.7501 38.4915 73.8853 38.4685 74.023 38.4481H74.0306C74.0689 38.4418 74.1059 38.4367 74.1441 38.4303H74.1518C74.1913 38.4239 74.2321 38.4188 74.2716 38.4124C74.3175 38.4061 74.3634 38.401 74.4093 38.3946C74.4604 38.3882 74.5101 38.3831 74.5611 38.3767H74.5828V38.3742C74.6325 38.3691 74.6835 38.364 74.7333 38.3589H74.7384C74.8799 38.3448 75.0215 38.3334 75.1656 38.3244H75.2063V38.3219C75.302 38.3155 75.3989 38.3117 75.4958 38.3079H75.5009C75.6909 38.3002 75.8822 38.2964 76.076 38.2964C76.2252 38.2964 76.3744 38.3002 76.5224 38.3066L76.5695 38.3079C76.6639 38.3117 76.757 38.3168 76.8514 38.3232L76.8743 38.3244C76.9419 38.3295 77.0095 38.3346 77.0771 38.341H77.0886C77.1944 38.3499 77.3002 38.3614 77.4048 38.3742L77.4201 38.3754C77.4609 38.3805 77.503 38.3844 77.5438 38.3895V38.392H77.5629C77.6025 38.3971 77.642 38.4035 77.6815 38.4086H77.6841C77.7236 38.4137 77.7631 38.4201 77.8027 38.4252H77.8039C77.8384 38.4303 77.8715 38.4367 77.906 38.4418H77.9098C77.9429 38.4469 77.9761 38.4532 78.0092 38.4583H78.0118C78.0399 38.4634 78.0679 38.4673 78.096 38.4724V38.4749H78.1138C78.1419 38.48 78.1712 38.4864 78.1993 38.4915H78.2018C78.2299 38.4966 78.2579 38.5017 78.2847 38.5081H78.2898C78.3459 38.5195 78.402 38.531 78.4581 38.5425C78.5104 38.554 78.5614 38.5655 78.6124 38.5769H78.6137C78.6367 38.582 78.6583 38.5871 78.6813 38.5922V38.5948H78.6902C78.7106 38.5999 78.731 38.605 78.7501 38.6101V38.6126H78.7591C78.8891 38.6445 79.0192 38.6777 79.148 38.7147V38.7172H79.1569C79.1773 38.7223 79.1977 38.7287 79.2182 38.7338H79.2207C79.2373 38.7389 79.2538 38.744 79.2704 38.7478V38.7504H79.2794C79.3163 38.7618 79.3546 38.7733 79.3916 38.7835H79.3941C79.5204 38.8218 79.6466 38.8613 79.7716 38.9047C79.8991 38.948 80.0253 38.9939 80.1516 39.0424H80.1541C80.1822 39.0526 80.2103 39.0641 80.2383 39.0743V39.0768H80.2434C80.2702 39.087 80.297 39.0972 80.3237 39.1074V39.1112H80.3327C80.3595 39.1214 80.385 39.1329 80.4105 39.1431V39.1457H80.4168C80.5252 39.1903 80.6323 39.2362 80.7395 39.2834H80.742C80.793 39.3063 80.844 39.3293 80.895 39.3523C80.9065 39.3574 80.918 39.3625 80.9295 39.3676L80.932 39.3688C81.2075 39.4964 81.4778 39.6354 81.7418 39.7833H81.743C81.7826 39.8062 81.8234 39.8279 81.8629 39.8509V39.8534H81.8667C81.9356 39.8929 82.0032 39.9337 82.0708 39.9746C82.1167 40.0026 82.1626 40.0307 82.2085 40.0587L82.211 40.06C82.2557 40.088 82.3016 40.1161 82.3462 40.1442V40.1467H82.3488C82.3653 40.1569 82.3806 40.1684 82.3972 40.1786V40.1811H82.4011C82.5043 40.2487 82.6076 40.3176 82.7084 40.3877L82.7109 40.389C82.7275 40.4005 82.7441 40.4119 82.7607 40.4234C82.7836 40.44 82.8066 40.4553 82.8295 40.4719V40.4757H82.8346C82.8499 40.4872 82.8652 40.4987 82.8818 40.5101C82.9456 40.556 83.008 40.602 83.0705 40.6479C83.1228 40.6874 83.1751 40.7269 83.2261 40.7665V40.769H83.2299C83.2516 40.7856 83.2746 40.8034 83.2962 40.82C83.3243 40.843 83.3536 40.8659 83.3817 40.8889C83.4454 40.9399 83.5079 40.9909 83.5704 41.0432L83.5717 41.0444C83.6061 41.0725 83.6393 41.1018 83.6737 41.1299L83.6903 41.1439V41.1477H83.6941C83.7336 41.1809 83.7719 41.2153 83.8102 41.2498L83.8127 41.251C83.8586 41.2906 83.9045 41.3314 83.9492 41.3722C84.0371 41.4512 84.1226 41.5329 84.208 41.6145L84.2259 41.631L84.2424 41.6476H84.2437C84.319 41.7203 84.3942 41.7943 84.4669 41.8695V41.8721H84.4694L84.4835 41.8861V41.8886H84.486L84.5 41.9039V41.9065H84.5026L84.5179 41.9218V41.9243H84.5204L84.5357 41.9396V41.9422H84.5383L84.5536 41.9588L84.5702 41.9753C84.6467 42.0544 84.7206 42.1347 84.7946 42.2164C84.8354 42.261 84.8749 42.3056 84.9145 42.3503V42.3554H84.9183L84.9311 42.3707V42.3732H84.9336C85.0037 42.4523 85.0713 42.5339 85.1389 42.6142C85.1619 42.6423 85.1848 42.6703 85.2078 42.6984V42.7009H85.2103C85.232 42.7277 85.255 42.7558 85.2766 42.7826V42.7877H85.2805L85.2932 42.8042C85.3111 42.8259 85.3276 42.8489 85.3442 42.8705V42.8744H85.3468C85.3697 42.9024 85.3914 42.9317 85.4131 42.9598C85.4654 43.0274 85.5176 43.0963 85.5687 43.1651V43.1677H85.5699C85.5865 43.1906 85.6044 43.2123 85.6209 43.2352V43.2365C85.6324 43.2518 85.6439 43.2684 85.6541 43.2837V43.2888H85.6579C85.6745 43.3118 85.6898 43.3347 85.7064 43.3577C85.7587 43.4316 85.811 43.5069 85.862 43.5821L85.8964 43.6331C85.9079 43.6497 85.9193 43.6675 85.9308 43.6841C85.9423 43.7007 85.9538 43.7186 85.9652 43.7351C86.006 43.7976 86.0469 43.8614 86.0864 43.9251C86.1387 44.0093 86.191 44.0947 86.242 44.1802V44.1853H86.2445C86.2611 44.2133 86.2777 44.2414 86.2943 44.2707V44.272C86.3172 44.3115 86.3401 44.3511 86.3631 44.3919V44.3931C86.3924 44.4441 86.4205 44.4964 86.4485 44.5474L86.4651 44.578V44.5819H86.4664C86.5251 44.6903 86.5824 44.7999 86.6373 44.9109C86.6424 44.9223 86.6488 44.9338 86.6551 44.9453L86.6717 44.9797C86.7125 45.0639 86.7533 45.1481 86.7928 45.2335V45.2399H86.7954C86.8005 45.2501 86.8056 45.2615 86.8094 45.2717V45.2743C86.8694 45.4044 86.9268 45.537 86.9816 45.6696V45.6722C86.9931 45.6989 87.0045 45.7257 87.0147 45.7525V45.7589H87.0173C87.0288 45.7857 87.039 45.8137 87.0492 45.8405V45.8456H87.0504C87.0619 45.8736 87.0721 45.9017 87.0836 45.9298V45.9323C87.1193 46.0241 87.1537 46.1159 87.1869 46.209C87.192 46.2243 87.1984 46.2409 87.2048 46.2562V46.26H87.206C87.2111 46.2753 87.2162 46.2894 87.2213 46.3047V46.3123H87.2239C87.229 46.3263 87.2341 46.3416 87.2379 46.3557V46.3633H87.2404C87.2889 46.5036 87.3335 46.6451 87.3756 46.788V46.7956H87.3782C87.3833 46.8122 87.3884 46.8275 87.3935 46.8441V46.8479C87.405 46.8874 87.4152 46.9282 87.4266 46.9678C87.4509 47.0532 87.4738 47.1386 87.4955 47.2241V47.2279C87.5006 47.2496 87.507 47.2713 87.5121 47.2929V47.2968C87.5172 47.3185 87.5235 47.3401 87.5286 47.3618V47.3656C87.5337 47.3873 87.5401 47.4103 87.5452 47.4319V47.4345C87.5567 47.4842 87.5682 47.5352 87.5797 47.5862V47.5913C87.5911 47.6424 87.6026 47.6946 87.6128 47.7456C87.6243 47.803 87.6358 47.8617 87.6472 47.9191V47.9357H87.6511C87.6562 47.9599 87.66 47.9841 87.6651 48.0096V48.0224H87.6677C87.6791 48.0848 87.6893 48.1486 87.6995 48.2111C87.7187 48.3259 87.7352 48.4406 87.7518 48.5554V48.5745H87.7544C87.7595 48.6153 87.7646 48.6574 87.7684 48.6982V48.7135H87.7697C87.7824 48.8168 87.7926 48.9214 87.8028 49.0247V49.0413H87.8041C87.8092 49.1037 87.8156 49.1662 87.8194 49.2287V49.2657H87.8219C87.827 49.346 87.8321 49.4264 87.8372 49.5067V49.5258C87.8462 49.7095 87.8513 49.8931 87.8513 50.0793C87.8513 50.254 87.8462 50.4261 87.8372 50.5996V50.6238C87.8334 50.7028 87.8283 50.7806 87.8219 50.8584H87.8194V50.8928C87.8156 50.9502 87.8105 51.0089 87.8054 51.0663H87.8028V51.0943C87.7888 51.241 87.7722 51.3876 87.7518 51.533H87.7505V51.5445C87.7454 51.5815 87.7403 51.6172 87.7352 51.6541H87.7339V51.6631C87.7135 51.7995 87.6906 51.9347 87.6651 52.0699V52.0724C87.66 52.1005 87.6549 52.1285 87.6498 52.1566H87.6485V52.1668C87.6434 52.1923 87.637 52.2178 87.6319 52.2433V52.2497C87.6268 52.2764 87.6205 52.3032 87.6154 52.33C87.595 52.4295 87.572 52.5264 87.549 52.6246H87.5465V52.6348C87.5414 52.6539 87.5376 52.6743 87.5325 52.6947H87.5299V52.7075C87.5248 52.7266 87.521 52.7457 87.5159 52.7636H87.5121V52.7763C87.507 52.7955 87.5019 52.8146 87.4968 52.8337H87.4942V52.8414C87.4891 52.8618 87.4827 52.8822 87.4776 52.9038V52.9064C87.456 52.9867 87.433 53.0671 87.4101 53.1461H87.4088V53.1512C87.3973 53.1895 87.3858 53.229 87.3743 53.2673C87.3692 53.2851 87.3641 53.3017 87.359 53.3196H87.3578V53.3247C87.3527 53.34 87.3476 53.3553 87.3425 53.3706H87.3399V53.3769C87.3348 53.3922 87.3297 53.4075 87.3246 53.4228H87.3221V53.4305C87.2889 53.5325 87.2545 53.6333 87.2188 53.734C87.2022 53.7812 87.1869 53.8271 87.1703 53.873H87.1665V53.8819C87.1614 53.896 87.155 53.9113 87.1499 53.9253C87.1397 53.9559 87.1282 53.9839 87.1168 54.012H87.1142V54.0171C87.0696 54.1319 87.0249 54.2454 86.9765 54.3576V54.3601C86.9599 54.3997 86.9421 54.4392 86.9255 54.4787C86.9025 54.5323 86.8808 54.5833 86.8566 54.6343C86.8171 54.7223 86.7775 54.809 86.7355 54.8932C86.7304 54.9046 86.7253 54.9161 86.7189 54.9276V54.9301L86.7023 54.962H86.701V54.9646C86.6959 54.9748 86.6908 54.9863 86.6845 54.9965V54.999C86.6794 55.0092 86.673 55.0207 86.6679 55.0309V55.0334L86.6513 55.0666L86.6347 55.101L86.6181 55.1355C86.6118 55.1469 86.6067 55.1584 86.6016 55.1699C86.5952 55.1814 86.5901 55.1928 86.5837 55.2043C86.5506 55.2681 86.5161 55.3318 86.4817 55.3943H86.4804V55.3981C86.4753 55.4083 86.469 55.4185 86.4639 55.43C86.4422 55.4708 86.4192 55.5116 86.3963 55.5512H86.3937V55.555C86.3644 55.606 86.3363 55.657 86.307 55.7067C86.2904 55.7361 86.2726 55.7641 86.2547 55.7935C86.2381 55.8228 86.2203 55.8508 86.2024 55.8802C86.1922 55.898 86.182 55.9146 86.1718 55.9325H86.168V55.9388C86.1616 55.9478 86.1565 55.958 86.1502 55.9669C86.14 55.9847 86.1285 56.0013 86.117 56.0192H86.1157V56.0217C86.0877 56.0676 86.0583 56.1123 86.0303 56.1569C85.9856 56.227 85.9397 56.2959 85.8938 56.3647H85.8913V56.3686C85.8811 56.3852 85.8696 56.4005 85.8594 56.417H85.8569V56.4209L85.8237 56.4693H85.8224V56.4719C85.7548 56.5701 85.686 56.667 85.6158 56.7639C85.5993 56.7881 85.5827 56.8098 85.5648 56.8327H85.5636V56.8353C85.547 56.8582 85.5304 56.8799 85.5138 56.9029H85.5113V56.9067C85.4947 56.9284 85.4781 56.9501 85.4615 56.973H85.4603V56.9756C85.4437 56.9985 85.4258 57.0202 85.408 57.0432C85.3404 57.1311 85.2715 57.2166 85.2027 57.3033H85.2014V57.3058C85.1784 57.3339 85.1555 57.362 85.1325 57.39L85.1185 57.4079H85.116V57.4117C85.0879 57.4448 85.0599 57.478 85.0305 57.5112H85.0292C84.9502 57.6055 84.8698 57.6973 84.7882 57.7879H84.787V57.7904L84.7729 57.8057H84.7691V57.8096C84.7117 57.872 84.6543 57.9345 84.597 57.9957C84.4286 58.1743 84.2565 58.3464 84.0792 58.5147C84.0053 58.5849 83.9313 58.6537 83.8561 58.7226H83.8548C83.7642 58.8055 83.6724 58.8858 83.5806 58.9649H83.5781V58.9674C83.5385 59.0019 83.4977 59.035 83.4569 59.0695C83.3944 59.1217 83.3307 59.174 83.2669 59.225C83.2159 59.2658 83.1649 59.3066 83.1139 59.3462H83.1113V59.3487C83.0897 59.3653 83.068 59.3819 83.0463 59.3985H83.0412V59.4023C82.9111 59.5017 82.7798 59.5987 82.6459 59.693H82.6433V59.6956C82.586 59.7364 82.5286 59.7759 82.4712 59.8142C82.4023 59.8614 82.3348 59.9073 82.2646 59.9532H82.2633L82.2123 59.9876C82.1677 60.0169 82.1231 60.0463 82.0771 60.0743H82.0733V60.0769C81.9713 60.1406 81.868 60.2031 81.7647 60.2643H81.7622C81.7341 60.2822 81.7061 60.3 81.6767 60.3166H81.6755C81.6359 60.3408 81.5951 60.3625 81.5556 60.3855C81.4191 60.4633 81.2814 60.5385 81.1424 60.6099H81.1412C81.131 60.6163 81.1195 60.6214 81.108 60.6277H81.1054C81.0952 60.6341 81.0838 60.6392 81.0736 60.6456H81.071L81.0391 60.6635H81.0366L81.0047 60.6813H81.0022C80.8721 60.7476 80.7407 60.8114 80.6081 60.8713H80.6043V60.8739C80.5928 60.879 80.5813 60.8841 80.5699 60.8892C80.5189 60.9121 80.4666 60.9364 80.4156 60.958C80.376 60.9759 80.3352 60.9925 80.2944 61.0103C80.2676 61.0218 80.2396 61.0333 80.2115 61.0447H80.2077C80.1822 61.0575 80.1554 61.069 80.1299 61.0792H80.1223V61.083C79.9743 61.1429 79.8251 61.199 79.6759 61.2526H79.6721C79.6581 61.259 79.6428 61.2654 79.6288 61.2705H79.6211V61.273C79.4668 61.3278 79.3125 61.3776 79.1569 61.426H79.1544C79.1174 61.4375 79.0804 61.4503 79.0434 61.4605H79.0332V61.463C79.0167 61.4681 79.0001 61.4719 78.9835 61.477H78.9822C78.9427 61.4885 78.9019 61.5 78.8624 61.5115C78.7527 61.5421 78.6443 61.5714 78.5334 61.5982C78.4836 61.6109 78.4339 61.6211 78.3842 61.6326H78.3778C78.3548 61.639 78.3319 61.6454 78.3089 61.6505C78.2273 61.6683 78.1444 61.6862 78.0628 61.7028H78.0501V61.7053C78.0258 61.7104 78.0016 61.7155 77.9774 61.7193H77.9633V61.7219C77.9353 61.727 77.9072 61.7321 77.8805 61.7372H77.8779C77.7746 61.7563 77.67 61.7729 77.5668 61.7895C77.5285 61.7958 77.4902 61.8009 77.452 61.8073H77.4278V61.8111C77.3895 61.8162 77.3525 61.8201 77.3143 61.8252H77.3066C77.2033 61.8392 77.1013 61.8494 76.998 61.8596H76.9776V61.8622C76.9151 61.8673 76.8539 61.8724 76.7914 61.8775H76.7697C76.6779 61.8851 76.5861 61.8902 76.4956 61.8953H76.442V61.8979C76.3158 61.903 76.1908 61.9055 76.0646 61.9055C75.9128 61.9055 75.7611 61.9017 75.6106 61.8966L75.6157 61.8928Z" fill="#31846C"/>
</svg>
