<svg width="16" height="16" viewBox="0 0 16 16" fill="none" xmlns="http://www.w3.org/2000/svg">
<path d="M14.6979 3H1.30212C0.584094 3 0 3.58409 0 4.30212V11.6228C0 12.3408 0.584094 12.9249 1.30212 12.9249H14.6979C15.4159 12.9249 16 12.3408 16 11.6228V4.30212C16 3.58409 15.4159 3 14.6979 3ZM15.0287 11.6227C15.0287 11.8052 14.8802 11.9536 14.6979 11.9536H1.30212C1.11975 11.9536 0.971313 11.8052 0.971313 11.6227V4.30212C0.971313 4.11975 1.11975 3.97131 1.30212 3.97131H14.6979C14.8802 3.97131 15.0287 4.11975 15.0287 4.30212V11.6227Z" fill="#31846C"/>
<path d="M6.44947 7.82633C7.00719 7.14261 6.96753 6.13089 6.33044 5.49383C5.65113 4.81439 4.54553 4.81439 3.86607 5.49383C3.229 6.13089 3.18935 7.14261 3.74707 7.82633C3.25832 8.07792 2.83947 8.46342 2.55163 8.94902C2.3081 9.3598 2.30419 9.8538 2.5415 10.2704C2.781 10.6907 3.21216 10.9416 3.69507 10.9416H6.50147C6.98428 10.9416 7.41553 10.6907 7.65491 10.2704C7.89222 9.8538 7.88844 9.3598 7.64491 8.94902C7.35707 8.46342 6.93822 8.07792 6.44947 7.82633ZM6.81091 9.78961C6.78003 9.84392 6.68788 9.97024 6.50147 9.97024H3.69507C3.50853 9.97024 3.4165 9.84392 3.3855 9.78961C3.3556 9.73711 3.29578 9.59833 3.38707 9.44427C3.74391 8.84246 4.39957 8.46855 5.09828 8.46855C5.79688 8.46855 6.4525 8.84246 6.80932 9.44427C6.90063 9.59833 6.84094 9.73708 6.81091 9.78958V9.78961ZM4.55297 6.18058C4.70325 6.03021 4.90078 5.95511 5.09828 5.95511C5.29578 5.95511 5.49328 6.03021 5.64369 6.18058C5.94432 6.48124 5.94432 6.97064 5.64369 7.2713C5.34291 7.57208 4.85363 7.57208 4.55297 7.2713C4.25219 6.97064 4.25219 6.48124 4.55297 6.18058ZM13.4656 5.6403H10.1008C9.83266 5.6403 9.61522 5.85771 9.61522 6.12592C9.61522 6.39421 9.83266 6.61161 10.1008 6.61161H13.4656C13.7338 6.61161 13.9513 6.39421 13.9513 6.12589C13.9513 5.85771 13.7338 5.6403 13.4656 5.6403ZM13.4656 7.47686H10.1008C9.83266 7.47686 9.61522 7.69427 9.61522 7.96246C9.61522 8.23077 9.83266 8.44817 10.1008 8.44817H13.4656C13.7338 8.44817 13.9513 8.23077 13.9513 7.96246C13.9513 7.69427 13.7338 7.47686 13.4656 7.47686ZM12.7476 9.31339H10.1008C9.83266 9.31339 9.61522 9.5308 9.61522 9.79902C9.61522 10.0673 9.83266 10.2847 10.1008 10.2847H12.7476C13.0158 10.2847 13.2333 10.0673 13.2333 9.79899C13.2333 9.5308 13.0158 9.31339 12.7476 9.31339Z" fill="#31846C"/>
</svg>
