<svg width="108" height="48" viewBox="0 0 108 48" fill="none" xmlns="http://www.w3.org/2000/svg">
<path d="M55.8626 13.146H54.0293V37.4911H55.8626V13.146Z" fill="#112C24"/>
<path d="M107.876 15.6072C107.969 15.3598 107.956 15.0798 107.843 14.8389L104.336 7.48784C104.096 6.98649 103.483 6.76511 102.969 6.99951L95.056 10.6002L86.2026 14.6305L68.516 22.6848L60.9893 26.1097C60.576 26.2985 60.1426 25.9078 60.296 25.4911L62.0893 20.6924C62.1826 20.445 62.376 20.2366 62.6226 20.1259L70.8826 16.369L79.7226 12.3386L87.636 8.73798C88.1493 8.50358 88.376 7.90455 88.136 7.4032L84.8826 0.579541C84.6426 0.0781844 84.0293 -0.143194 83.516 0.0912067L75.6026 3.69186L67.1426 7.54644C66.896 7.65713 66.7026 7.86549 66.6093 8.11291L60.0093 25.7711C59.816 26.292 60.0893 26.8715 60.6226 27.0603L72.2293 31.1883C72.4826 31.2795 72.7693 31.2665 73.016 31.1558L81.4693 27.3012L90.3093 23.2643L99.1626 19.2339L106.689 15.8091C107.103 15.6202 107.536 16.0109 107.383 16.4276L105.583 21.2589C105.489 21.5063 105.296 21.7146 105.049 21.8253L96.816 25.5757L87.9626 29.6061L70.276 37.6604L66.776 39.2556C66.2626 39.49 66.036 40.089 66.276 40.5904L69.5293 47.4075C69.7693 47.9089 70.3826 48.1303 70.896 47.8959L74.396 46.3072L83.236 42.2703L92.076 38.2399L100.543 34.3853C100.789 34.2746 100.983 34.0662 101.076 33.8188L105.649 21.5454H105.636L107.856 15.5942L107.876 15.6072ZM100.503 37.5106L89.536 42.5047L84.0026 45.1156C83.916 45.1547 83.876 45.2589 83.916 45.35L85.0893 47.7982C85.1293 47.8894 85.2426 47.9284 85.336 47.8829L88.016 46.5806L99.316 41.4368C99.3626 41.4173 99.396 41.3782 99.4093 41.3392L100.756 37.732C100.809 37.5823 100.656 37.4455 100.509 37.5106H100.503Z" fill="#112C24"/>
<mask id="mask0_5218_59956" style="mask-type:luminance" maskUnits="userSpaceOnUse" x="59" y="-1" width="49" height="49">
<path d="M107.876 15.6072C107.969 15.3598 107.956 15.0798 107.843 14.8389L104.336 7.48784C104.096 6.98649 103.483 6.76511 102.969 6.99951L95.056 10.6002L86.2026 14.6305L68.516 22.6848L60.9893 26.1097C60.576 26.2985 60.1426 25.9078 60.296 25.4911L62.0893 20.6924C62.1826 20.445 62.376 20.2366 62.6226 20.1259L70.8826 16.369L79.7226 12.3386L87.636 8.73798C88.1493 8.50358 88.376 7.90455 88.136 7.4032L84.8826 0.579541C84.6426 0.0781844 84.0293 -0.143194 83.516 0.0912067L75.6026 3.69186L67.1426 7.54644C66.896 7.65713 66.7026 7.86549 66.6093 8.11291L60.0093 25.7711C59.816 26.292 60.0893 26.8715 60.6226 27.0603L72.2293 31.1883C72.4826 31.2795 72.7693 31.2665 73.016 31.1558L81.4693 27.3012L90.3093 23.2643L99.1626 19.2339L106.689 15.8091C107.103 15.6202 107.536 16.0109 107.383 16.4276L105.583 21.2589C105.489 21.5063 105.296 21.7146 105.049 21.8253L96.816 25.5757L87.9626 29.6061L70.276 37.6604L66.776 39.2556C66.2626 39.49 66.036 40.089 66.276 40.5904L69.5293 47.4075C69.7693 47.9089 70.3826 48.1303 70.896 47.8959L74.396 46.3072L83.236 42.2703L92.076 38.2399L100.543 34.3853C100.789 34.2746 100.983 34.0662 101.076 33.8188L105.649 21.5454H105.636L107.856 15.5942L107.876 15.6072ZM100.503 37.5106L89.536 42.5047L84.0026 45.1156C83.916 45.1547 83.876 45.2589 83.916 45.35L85.0893 47.7982C85.1293 47.8894 85.2426 47.9284 85.336 47.8829L88.016 46.5806L99.316 41.4368C99.3626 41.4173 99.396 41.3782 99.4093 41.3392L100.756 37.732C100.809 37.5823 100.656 37.4455 100.509 37.5106H100.503Z" fill="white"/>
</mask>
<g mask="url(#mask0_5218_59956)">
<path d="M108.429 0.0913086H59.4756V47.9025H108.429V0.0913086Z" fill="#112C24"/>
</g>
<path d="M0.576172 24.6056C0.576172 22.7109 1.05617 21.2914 2.01617 20.3538C2.97617 19.4097 4.30284 18.9409 6.0095 18.9409H7.91617V21.9491H5.4695C4.92284 21.9491 4.48951 22.1379 4.14951 22.509C3.81617 22.8867 3.64951 23.4206 3.64951 24.1173V25.2958H8.7295V28.3039H0.576172V24.6121V24.6056Z" fill="#112C24"/>
<path d="M11.7031 13.146H14.7831V28.3039H11.7031V13.146Z" fill="#112C24"/>
<path d="M17.9827 32.2885C17.7227 32.2885 17.4693 32.2755 17.2227 32.243C16.976 32.2104 16.716 32.1518 16.4427 32.0737L16.2227 29.0525C16.6693 29.1632 16.9827 29.2283 17.156 29.2544C17.336 29.2804 17.516 29.2869 17.7027 29.2869C18.136 29.2869 18.436 29.1762 18.6027 28.9548C18.7693 28.7335 18.856 28.3298 18.856 27.7503V17.645H21.936V25.3021H36.4027V28.3102H21.9027C21.8427 29.6125 21.496 30.6022 20.876 31.2793C20.2493 31.9565 19.2893 32.295 17.996 32.295L17.9827 32.2885Z" fill="#112C24"/>
<path d="M35.5424 25.2961H47.0958V23.5967C47.0958 23.2581 47.0558 22.9651 46.9824 22.7177C46.9091 22.4702 46.7958 22.2554 46.6491 22.0731C46.5158 21.8908 46.3224 21.7475 46.0758 21.6303C45.8291 21.5131 45.5558 21.461 45.2624 21.461H33.3491C33.0558 21.0769 32.8158 20.6667 32.6358 20.2304C32.4558 19.7942 32.3558 19.2733 32.3291 18.6547L35.4224 13.1528H38.7624L35.8891 18.4789H45.0024C45.8691 18.4789 46.6291 18.5896 47.2891 18.811C47.9491 19.0324 48.5291 19.397 49.0224 19.9049C49.4558 20.3541 49.7558 20.9011 49.9224 21.5587C50.0891 22.2163 50.1758 22.9325 50.1758 23.7074V28.3042H35.5491V25.2961H35.5424Z" fill="#112C24"/>
<path d="M24.1895 37.4977V30.2378H24.8495V33.5845L28.2361 30.2378H29.1228L25.4895 33.8645L29.4695 37.4977H28.5295L24.8495 34.1575V37.4977H24.1895Z" fill="#112C24"/>
<path d="M30.4764 30.231H34.8097V30.8495H31.1297V33.4019H34.4631V34.0335H31.1297V36.8788H34.8497V37.4974H30.4697V30.2375L30.4764 30.231Z" fill="#112C24"/>
<path d="M37.0623 34.3398V37.4977H36.4023V30.2378H38.7957C39.2557 30.2378 39.6557 30.2899 39.9823 30.4006C40.309 30.5047 40.5823 30.6545 40.789 30.8368C40.9957 31.0191 41.149 31.234 41.2423 31.4814C41.3357 31.7288 41.3823 31.9893 41.3823 32.2628C41.3823 32.4646 41.3557 32.673 41.309 32.8813C41.2557 33.0897 41.1623 33.285 41.0223 33.4738C40.8823 33.6561 40.689 33.8189 40.4423 33.9622C40.1957 34.1054 39.9423 34.1966 39.669 34.2421L41.789 37.5042H41.0157L38.9423 34.3463H37.0557L37.0623 34.3398ZM37.0623 30.8498V33.7212H38.669C38.9957 33.7212 39.2823 33.6952 39.5423 33.6431C39.7957 33.591 40.009 33.5064 40.1757 33.3892C40.3423 33.272 40.4757 33.1157 40.5623 32.9334C40.649 32.7511 40.6957 32.5167 40.6957 32.2497C40.6957 32.0349 40.6623 31.8395 40.589 31.6702C40.5157 31.501 40.4023 31.3512 40.249 31.234C40.089 31.1168 39.8823 31.0191 39.6223 30.954C39.3623 30.8889 39.0423 30.8564 38.6757 30.8564H37.069L37.0623 30.8498Z" fill="#112C24"/>
<path d="M48.6895 37.4977H47.9762L47.0362 35.2058H43.7695L42.8295 37.4977H42.1162L45.1029 30.2378H45.7095L48.6962 37.4977H48.6895ZM44.0229 34.5742H46.7762L45.3962 31.2405L44.0229 34.5742Z" fill="#112C24"/>
</svg>
