<svg width="21" height="16" viewBox="0 0 21 16" fill="none" xmlns="http://www.w3.org/2000/svg">
<g clip-path="url(#clip0_5988_19390)">
<mask id="mask0_5988_19390" style="mask-type:alpha" maskUnits="userSpaceOnUse" x="0" y="0" width="21" height="16">
<path d="M19 0.5H2C0.89543 0.5 0 1.39543 0 2.5V13.5C0 14.6046 0.89543 15.5 2 15.5H19C20.1046 15.5 21 14.6046 21 13.5V2.5C21 1.39543 20.1046 0.5 19 0.5Z" fill="white"/>
</mask>
<g mask="url(#mask0_5988_19390)">
<path d="M19 0.5H2C0.89543 0.5 0 1.39543 0 2.5V13.5C0 14.6046 0.89543 15.5 2 15.5H19C20.1046 15.5 21 14.6046 21 13.5V2.5C21 1.39543 20.1046 0.5 19 0.5Z" fill="#00773C"/>
<path fill-rule="evenodd" clip-rule="evenodd" d="M15.9999 10.4998V9.49976H4.99986L6.99986 10.4998H12.9999C12.9999 11.0518 13.6719 11.4998 14.4999 11.4998C15.3279 11.4998 15.9999 11.0518 15.9999 10.4998ZM8.72986 4.40576C8.71786 4.40576 8.69986 4.41176 8.67686 4.42576C8.62286 4.46176 8.51686 4.57276 8.51286 4.70076C8.50986 4.77376 8.49586 4.77376 8.54286 4.82076C8.57686 4.86876 8.61286 4.86476 8.68086 4.82776C8.72086 4.79776 8.73386 4.78076 8.74786 4.73176C8.76386 4.65176 8.66086 4.77176 8.64786 4.67976C8.62486 4.59576 8.69086 4.55976 8.75286 4.47976C8.75486 4.43976 8.75486 4.40976 8.72986 4.40776V4.40576ZM9.73286 4.41076C9.71286 4.41476 9.68986 4.44076 9.65686 4.49876C9.63386 4.56076 9.53286 4.65476 9.60686 4.84876C9.66486 4.97176 9.68986 5.17076 9.66286 5.39376C9.62086 5.45676 9.61286 5.47876 9.55786 5.54176C9.48186 5.62476 9.39786 5.60376 9.33586 5.57176C9.27586 5.53176 9.22986 5.51176 9.20286 5.38576C9.20786 5.18576 9.21986 4.85376 9.18286 4.78376C9.12886 4.67576 9.03886 4.71376 9.00086 4.74676C8.81786 4.91676 8.72686 5.19976 8.67086 5.42676C8.62086 5.59076 8.56586 5.54276 8.52786 5.47676C8.43486 5.38876 8.42786 4.70676 8.31586 4.81976C8.13586 5.33376 8.41886 5.89676 8.61586 5.84176C8.75586 5.90176 8.84586 5.63176 8.90386 5.33676C8.94386 5.25376 8.97386 5.24376 8.99386 5.28676C8.98886 5.67876 9.02386 5.76676 9.12386 5.88476C9.34786 6.05876 9.53386 5.90676 9.54886 5.89276L9.72386 5.71876C9.76386 5.67876 9.81386 5.67476 9.86886 5.71076C9.92286 5.76076 9.91586 5.84376 10.0289 5.90076C10.1269 5.94076 10.3319 5.91076 10.3789 5.82776C10.4439 5.71776 10.4589 5.67976 10.4889 5.63776C10.5349 5.57776 10.6139 5.60476 10.6139 5.62376C10.6069 5.65876 10.5609 5.69376 10.5919 5.75376C10.6469 5.79376 10.6599 5.76776 10.6919 5.75876C10.8059 5.70476 10.8919 5.45676 10.8919 5.45676C10.8969 5.36476 10.8449 5.37176 10.8119 5.39076C10.7669 5.41776 10.7649 5.42676 10.7219 5.45376C10.6649 5.46176 10.5569 5.49876 10.5039 5.41576C10.4489 5.31576 10.4489 5.17776 10.4069 5.07576C10.4069 5.06976 10.3339 4.91876 10.4009 4.90976C10.4339 4.91576 10.5079 4.93476 10.5189 4.87376C10.5549 4.81376 10.4419 4.64376 10.3649 4.55976C10.2989 4.48676 10.2069 4.47776 10.1179 4.55176C10.0549 4.60976 10.0649 4.67376 10.0519 4.73476C10.0369 4.80476 10.0399 4.89176 10.1119 4.98476C10.1739 5.10676 10.2869 5.26476 10.2489 5.48676C10.2489 5.48676 10.1839 5.59276 10.0689 5.57876C10.0189 5.56876 9.94086 5.54876 9.89886 5.23876C9.86886 5.00576 9.90686 4.67876 9.80886 4.52576C9.78586 4.46876 9.76686 4.41276 9.73486 4.41576L9.73286 4.41076ZM9.41486 4.43676C9.38486 4.43976 9.35186 4.47476 9.32486 4.54176C9.30186 4.59376 9.27286 4.86176 9.27786 4.86176C9.25786 4.94176 9.36086 4.97576 9.40786 4.87376C9.47786 4.68376 9.47786 4.60376 9.48186 4.52576C9.47186 4.46576 9.44486 4.43576 9.41486 4.43776V4.43676ZM10.5879 4.45676C10.5579 4.46076 10.5329 4.47876 10.5239 4.52476C10.5109 4.63076 10.5179 4.68976 10.5359 4.77876C10.5489 4.83876 10.6359 4.93676 10.6779 4.99476C10.8809 5.26776 11.0779 5.54176 11.2659 5.82476C11.2959 6.03676 11.3159 6.24276 11.3309 6.44876C11.3629 6.89876 11.3709 7.45876 11.3439 7.93376C11.4279 7.93676 11.5639 7.79676 11.6109 7.59376C11.6409 7.30976 11.6009 6.73376 11.5969 6.56576L11.5869 6.32776C11.8069 6.68776 12.0189 7.06776 12.2269 7.48376C12.3039 7.44776 12.2869 7.01876 12.2429 6.95876C12.0749 6.59876 11.8429 6.24276 11.7699 6.10576C11.7429 6.05576 11.6519 5.91876 11.5449 5.75976C11.5249 5.53176 11.5029 5.33976 11.4889 5.28176C11.4539 5.04176 11.5869 5.30876 11.5689 5.16976C11.5249 4.92976 11.3929 4.76776 11.2369 4.54776C11.1869 4.47776 11.1869 4.46176 11.1099 4.56576C11.0649 4.67076 11.0649 4.75876 11.0799 4.84076C11.0579 4.81076 11.0329 4.77676 10.9969 4.73276L10.7419 4.51676C10.7069 4.49176 10.6389 4.45376 10.5879 4.45676ZM14.0639 4.49376C14.0489 4.49176 14.0339 4.49876 14.0139 4.52576C13.9789 4.55576 13.9419 4.61276 13.9439 4.68576C13.9509 4.81076 13.9739 4.93976 13.9819 5.06576L13.9919 5.11576C13.9779 5.09976 13.9659 5.08576 13.9589 5.07976C13.7119 4.81976 14.0719 5.03576 13.9109 4.83676C13.7759 4.68676 13.7359 4.64076 13.6209 4.55076C13.5609 4.51476 13.5269 4.44276 13.5079 4.56476C13.4999 4.67176 13.4919 4.79676 13.4979 4.88676C13.4979 4.93676 13.5509 5.03176 13.5959 5.08676C13.7599 5.28976 13.9279 5.50476 14.0959 5.72876C14.1319 6.18576 14.1409 6.60476 14.1759 7.06276C14.1719 7.25876 14.1119 7.51876 14.0559 7.54276C14.0559 7.54276 13.9679 7.59276 13.9099 7.53776C13.8669 7.52076 13.6979 7.25476 13.6979 7.25476C13.6109 7.17476 13.5529 7.19776 13.4919 7.25476C13.3219 7.41876 13.2439 7.72676 13.1289 7.93876C13.0989 7.98576 13.0159 8.02676 12.9229 7.93476C12.6859 7.61076 12.8229 7.14976 12.7949 7.26876C12.5849 7.50676 12.6769 7.90076 12.7249 7.98576C12.7949 8.12576 12.8509 8.21576 12.9849 8.28276C13.1099 8.37276 13.2049 8.31776 13.2589 8.25276C13.3829 8.12476 13.3849 7.79576 13.4429 7.73076C13.4829 7.61076 13.5859 7.63076 13.6359 7.68476C13.6859 7.75476 13.7419 7.79976 13.8129 7.83776C13.9289 7.93976 14.0669 7.95776 14.2029 7.86476C14.2959 7.81276 14.3569 7.74476 14.4109 7.61076C14.4709 7.45476 14.4409 6.63476 14.4279 6.17876L14.6879 6.55476C14.7239 6.95476 14.7409 7.34976 14.7279 7.72776C14.7199 7.80276 14.9909 7.50376 14.9879 7.36176C14.9879 7.23876 14.9899 7.12576 14.9879 7.02176C15.1209 7.23176 15.2479 7.44476 15.3679 7.66176C15.4429 7.62176 15.4179 7.19876 15.3709 7.14176C15.2449 6.92976 15.0829 6.70176 14.9579 6.52376C14.9329 6.30076 14.8999 6.03776 14.8839 5.95676C14.8609 5.83076 14.8369 5.64176 14.8009 5.49276C14.7909 5.43576 14.7609 5.24976 14.7709 5.23276C14.7849 5.18976 14.8409 5.23276 14.8679 5.18476C14.9079 5.13976 14.7259 4.66476 14.6329 4.53076C14.5999 4.47076 14.5389 4.49076 14.4649 4.59076C14.3949 4.65476 14.4209 4.80276 14.4469 4.94376C14.5149 5.30376 14.5769 5.66776 14.6249 6.03376C14.5349 5.89876 14.4249 5.73676 14.3169 5.58176L14.3029 5.51176C14.3029 5.50376 14.2889 5.21676 14.2759 5.14876C14.2729 5.12076 14.2659 5.11276 14.2959 5.11676C14.3259 5.14276 14.3299 5.14376 14.3489 5.15276C14.3809 5.15676 14.4089 5.10476 14.3889 5.05576L14.0989 4.52176C14.0889 4.50876 14.0749 4.49676 14.0589 4.49476L14.0639 4.49376ZM5.09386 4.50376C5.03886 4.50176 4.98086 4.53376 5.00386 4.59876C4.98986 4.63376 5.10786 4.75176 5.12886 4.81676C5.14586 4.86376 5.10886 5.01176 5.14886 5.02676C5.18386 5.04176 5.23286 4.92276 5.25086 4.81376C5.26086 4.75376 5.25386 4.54776 5.11386 4.50576C5.10686 4.50376 5.09986 4.50376 5.09186 4.50276L5.09386 4.50376ZM15.3139 4.50376C15.3009 4.50576 15.2859 4.52376 15.2639 4.57376C15.2089 4.66376 15.1899 4.82376 15.2119 4.96376C15.3419 5.85376 15.4419 6.71576 15.4619 7.50376C15.4499 7.57976 15.4459 7.61976 15.4119 7.71376C15.3339 7.81376 15.2479 7.93776 15.1669 7.99776C15.0869 8.05776 14.9149 8.11576 14.8589 8.15976C14.6789 8.26176 14.6789 8.37976 14.8229 8.38476C15.0709 8.35476 15.3649 8.33476 15.5669 8.02976C15.6209 7.94476 15.6849 7.71276 15.6869 7.56976C15.7069 6.73976 15.6769 5.92476 15.5519 5.32376C15.5439 5.26376 15.5179 5.13076 15.5279 5.11376C15.5429 5.07176 15.6239 5.11676 15.6529 5.06976C15.6959 5.02576 15.4429 4.70276 15.3549 4.56476C15.3369 4.53076 15.3249 4.50176 15.3109 4.50476L15.3139 4.50376ZM12.7109 4.51776C12.7009 4.51976 12.6869 4.53576 12.6589 4.57276C12.5889 4.79876 12.5649 4.98276 12.5919 5.12476C12.7719 6.05476 12.9519 6.89976 12.9239 7.78476C13.0079 7.78476 13.1059 7.59176 13.1479 7.39976C13.1709 7.13476 13.1319 6.97376 13.1259 6.81976C13.1189 6.66376 12.9499 5.40376 12.9159 5.28676C12.8739 5.06476 13.0799 5.25676 13.0579 5.12876C12.9859 4.96476 12.8079 4.72876 12.7539 4.58576C12.7339 4.54776 12.7299 4.51276 12.7139 4.51576L12.7109 4.51776ZM6.37686 4.53576C6.35686 4.53976 6.33386 4.55776 6.32686 4.58576C6.32186 4.60576 6.33486 4.63876 6.31686 4.64876C6.30686 4.65876 6.26886 4.65176 6.27086 4.59876C6.27086 4.58076 6.25786 4.56276 6.25086 4.55176C6.24286 4.54776 6.23786 4.54676 6.22386 4.54676C6.20686 4.54676 6.20686 4.55176 6.19786 4.56676C6.19386 4.58076 6.18786 4.59476 6.18786 4.61076C6.18586 4.63076 6.17786 4.63576 6.16486 4.63876C6.14886 4.63876 6.15186 4.64076 6.13986 4.63176C6.12986 4.62476 6.12186 4.62176 6.12186 4.60776C6.12186 4.59276 6.11786 4.56776 6.11386 4.55976C6.10686 4.54976 6.09586 4.54576 6.08386 4.54276C6.01786 4.54276 6.01386 4.62076 6.01686 4.64876C6.01186 4.65476 6.00986 4.78876 6.09986 4.82676C6.21986 4.88476 6.44786 4.85976 6.43986 4.66476C6.43986 4.64776 6.43486 4.58976 6.43286 4.57476C6.42086 4.54476 6.39786 4.53476 6.37586 4.53776L6.37686 4.53576ZM8.00286 4.53776C7.96086 4.53976 7.92286 4.55176 7.89286 4.56776C7.81286 4.64476 7.79286 4.76776 7.85686 4.84476C7.91686 4.87476 7.97986 4.93476 7.93886 4.96976C7.76486 5.15476 7.31186 5.46576 7.28886 5.52276V5.52876H7.29286V5.53076C7.31586 5.54576 7.59986 5.54576 7.63086 5.53076H7.63286C7.73086 5.49376 8.19286 4.96576 8.19286 4.96576C8.16886 4.94576 8.14686 4.92976 8.12286 4.90876C8.09686 4.88676 8.09986 4.86476 8.12286 4.84276C8.23686 4.77676 8.20086 4.62976 8.14086 4.56276C8.09086 4.54076 8.04486 4.53276 8.00286 4.53576V4.53776ZM12.2529 4.53776C12.2409 4.54076 12.2259 4.55776 12.2029 4.60776C12.1479 4.69776 12.1109 4.85276 12.1159 4.99776C12.2339 5.81776 12.2699 6.53476 12.3479 7.35476C12.3539 7.43476 12.3419 7.54876 12.2899 7.59476C12.0939 7.79876 11.8129 8.04876 11.5069 8.16476C11.4739 8.20176 11.5889 8.35876 11.7369 8.35876C11.9849 8.32876 12.2029 8.19076 12.4069 7.82376C12.4599 7.73876 12.5549 7.55576 12.5569 7.41376C12.5769 6.58176 12.5169 5.93376 12.3909 5.33376C12.3839 5.27376 12.3889 5.20376 12.3989 5.18776C12.4149 5.16776 12.4689 5.18776 12.4989 5.14076C12.5409 5.09676 12.3849 4.73776 12.2969 4.60076C12.2789 4.56576 12.2689 4.53776 12.2529 4.53876V4.53776ZM5.66886 4.56476C5.63486 4.56876 5.60286 4.59476 5.58686 4.63476C5.58186 4.76476 5.58086 4.89476 5.59686 5.01676C5.65686 5.22976 5.67386 5.41676 5.70286 5.63376C5.71286 5.92576 5.53486 5.75976 5.54286 5.61576C5.58286 5.42776 5.57286 5.13276 5.53686 5.05776C5.50686 4.98276 5.47486 4.96476 5.40486 4.97776C5.34986 4.97376 5.20686 5.12776 5.16686 5.38776C5.16686 5.38776 5.13286 5.51976 5.11886 5.63776C5.09886 5.77076 5.01086 5.86576 4.94886 5.61976C4.89586 5.43976 4.86386 4.99976 4.77486 5.10176C4.74886 5.44576 4.71886 6.05176 5.01086 6.11376C5.36486 6.14776 5.16886 5.51576 5.29686 5.40076C5.32186 5.34576 5.36686 5.34476 5.36986 5.41576V5.95276C5.36586 6.12676 5.47986 6.17876 5.56986 6.21476C5.66286 6.20776 5.72386 6.21076 5.75986 6.30076L5.80486 7.23076C5.80486 7.23076 6.01886 7.29076 6.02886 6.70776C6.03886 6.36476 5.95886 6.07776 6.00586 6.01076C6.00786 5.94476 6.09186 5.94076 6.14986 5.97376C6.24286 6.03876 6.28386 6.11876 6.42786 6.08676C6.64786 6.02676 6.77786 5.92076 6.78086 5.75276C6.77086 5.59276 6.75086 5.43276 6.68086 5.27276C6.69086 5.24476 6.64086 5.16976 6.65086 5.14076C6.68886 5.20076 6.74886 5.19676 6.76086 5.14076C6.72486 5.01776 6.66686 4.90076 6.57286 4.85076C6.49586 4.78076 6.38286 4.79576 6.34086 4.93776C6.32086 5.10176 6.40086 5.29576 6.52086 5.45476C6.54486 5.51676 6.58086 5.61976 6.56486 5.71276C6.50186 5.74876 6.43886 5.73276 6.38486 5.67776C6.38486 5.67776 6.21186 5.54776 6.21186 5.51776C6.25886 5.22276 6.22186 5.18776 6.19686 5.10776C6.17886 4.99376 6.12486 4.95776 6.08186 4.87976C6.03786 4.83276 5.97886 4.83276 5.95186 4.87976C5.87386 5.01276 5.90986 5.29976 5.96586 5.42676C6.00586 5.54476 6.06786 5.61876 6.03886 5.61876C6.01486 5.68376 5.96486 5.66876 5.92886 5.59176C5.87886 5.43176 5.86686 5.19576 5.86686 5.08876C5.85186 4.95676 5.83486 4.67376 5.74686 4.60176C5.72386 4.56976 5.69686 4.55876 5.66986 4.56176L5.66886 4.56476ZM6.91086 4.56476C6.89386 4.56876 6.87386 4.57876 6.85086 4.58476C6.77586 4.60776 6.70586 4.67276 6.72786 4.79876C6.81786 5.33876 6.87486 5.75176 6.96386 6.29176C6.97686 6.35576 6.92386 6.43876 6.85586 6.43176C6.73986 6.35176 6.71086 6.19176 6.51286 6.19976C6.36886 6.19976 6.20486 6.35776 6.18486 6.50776C6.16086 6.62776 6.15286 6.75776 6.18486 6.86176C6.28486 6.98176 6.40686 6.96976 6.51286 6.94176C6.59986 6.90676 6.67286 6.82176 6.70286 6.84176C6.72286 6.87476 6.70086 7.15576 6.29286 7.37176C6.04086 7.48576 5.84086 7.51176 5.73286 7.30776C5.66686 7.17976 5.73886 6.69176 5.57486 6.80376C5.08886 8.05576 6.71186 8.22976 6.89286 6.85576C6.90486 6.81576 6.93986 6.77776 6.96586 6.78776C6.97586 6.79276 6.98586 6.80776 6.98986 6.83576C6.95186 8.07976 5.73386 8.16576 5.52786 7.77376C5.47586 7.68176 5.46086 7.47576 5.45586 7.35376C5.44586 7.27876 5.42786 7.23576 5.40586 7.21876C5.35586 7.18176 5.28986 7.27876 5.27586 7.44576C5.25586 7.58076 5.26086 7.61776 5.26086 7.74776C5.32686 8.73076 6.89386 8.30776 7.14886 7.49776C7.27486 7.07776 7.14586 6.76076 7.18886 6.72176L7.19186 6.71976H7.19486L7.19986 6.71776C7.35586 6.88576 7.57386 6.73776 7.62186 6.68076C7.64186 6.65076 7.69386 6.63076 7.72986 6.67076C7.84986 6.75676 8.06386 6.71576 8.10786 6.56076C8.13386 6.41076 8.15586 6.25676 8.16086 6.09576C8.08086 6.12076 8.01686 6.13876 7.99086 6.16576C7.98486 6.17276 7.98086 6.18076 7.97886 6.18876L7.95886 6.32176C7.95886 6.32676 7.95686 6.32976 7.95486 6.33176C7.95186 6.33876 7.94486 6.34376 7.94086 6.34676C7.91286 6.36176 7.86386 6.35376 7.86086 6.31276C7.82386 6.14276 7.66886 6.12076 7.57486 6.38576C7.51186 6.43576 7.39486 6.44576 7.38486 6.36976C7.39986 6.19176 7.32786 6.16776 7.18486 6.25176L7.04686 5.21176C7.10686 5.20876 7.16086 5.25176 7.21686 5.18376C7.15686 4.99976 7.03186 4.62576 6.96086 4.58976H6.95886L6.94886 4.57976C6.94886 4.57776 6.94586 4.57676 6.94386 4.57576L6.93986 4.56976C6.93586 4.56976 6.93186 4.56776 6.92986 4.56676C6.92286 4.56476 6.91686 4.56476 6.90986 4.56476H6.91086ZM11.7529 4.56876C11.6909 4.56676 11.6229 4.60576 11.6489 4.68376C11.6329 4.72676 11.7819 4.87076 11.8059 4.94876C11.8489 5.06876 11.7729 5.18576 11.8179 5.20276C11.8599 5.22076 11.9179 5.07776 11.9379 4.94476C11.9639 4.83676 11.8879 4.61676 11.7779 4.57176L11.7529 4.56976V4.56876ZM7.97986 4.69976C8.00786 4.69776 8.04186 4.72376 8.05986 4.75976C8.07686 4.79976 8.06786 4.83676 8.03986 4.84376C8.00986 4.85076 7.97186 4.82576 7.95386 4.78576C7.93586 4.74576 7.94386 4.70876 7.97386 4.70176H7.97986V4.69976ZM14.9769 4.88176C14.9199 4.87976 14.8569 4.92176 14.8829 5.00676C14.8689 5.05276 15.0029 5.20876 15.0259 5.29476C15.0459 5.35476 14.9959 5.55076 15.0359 5.56876C15.0739 5.58876 15.1259 5.43276 15.1459 5.28876C15.1579 5.20876 15.0999 4.93376 15.0009 4.88476C14.9939 4.88276 14.9859 4.88076 14.9779 4.88076L14.9769 4.88176ZM11.1069 4.97776C11.1139 5.00076 11.1189 5.02376 11.1219 5.04776C11.1339 5.09776 11.1439 5.14776 11.1539 5.19976C11.1099 5.13776 11.0739 5.08776 11.0569 5.06976C10.9569 4.94976 11.0589 4.99176 11.1069 4.97776ZM11.9999 5.41576C11.9779 5.41976 11.9569 5.43876 11.9499 5.46876C11.9439 5.48676 11.9579 5.51876 11.9399 5.52876C11.9299 5.53876 11.8899 5.53276 11.8929 5.47876C11.8929 5.46076 11.8799 5.44176 11.8729 5.43176C11.8649 5.42676 11.8599 5.42476 11.8459 5.42476C11.8289 5.42476 11.8289 5.42976 11.8199 5.44476C11.8159 5.45876 11.8099 5.47276 11.8099 5.48976C11.8099 5.50976 11.8019 5.51576 11.7879 5.51976C11.7719 5.51976 11.7749 5.51976 11.7619 5.51276C11.7539 5.50276 11.7449 5.50076 11.7449 5.48676C11.7449 5.47176 11.7419 5.44876 11.7369 5.43876C11.7299 5.42876 11.7199 5.42576 11.7069 5.42176C11.6419 5.42176 11.6369 5.49776 11.6409 5.52576C11.6369 5.53176 11.6339 5.66776 11.7239 5.70576C11.8459 5.76276 12.0739 5.73576 12.0639 5.54176C12.0639 5.52476 12.0589 5.46676 12.0579 5.45176C12.0449 5.42176 12.0219 5.41176 12.0009 5.41476L11.9999 5.41576ZM7.92986 5.45576C7.91586 5.45576 7.89586 5.45976 7.87286 5.47376C7.76586 5.53176 7.72486 5.70376 7.79286 5.80376C7.85286 5.89376 7.95286 5.86076 7.96586 5.86076C8.07086 5.87476 8.13286 5.66476 8.13286 5.66476C8.13286 5.66476 8.13586 5.60476 8.01286 5.71676C7.95886 5.72676 7.95286 5.70676 7.93886 5.67676C7.92686 5.62376 7.92886 5.56676 7.95386 5.51376C7.96586 5.48076 7.95386 5.45976 7.92986 5.45776V5.45576ZM13.6829 5.48276C13.6229 5.47976 13.5599 5.51876 13.5429 5.59976C13.5429 5.64776 13.5649 5.67376 13.5609 5.71776C13.5559 5.74276 13.5309 5.75776 13.4689 5.72976C13.4789 5.71976 13.4289 5.65176 13.4289 5.65176C13.3819 5.62176 13.3189 5.65176 13.2769 5.67976C13.2539 5.72176 13.2369 5.79276 13.2629 5.86476C13.3309 5.99176 13.5659 6.20776 13.6779 6.20976C13.6799 6.09576 13.6909 5.94376 13.6979 5.84976C13.6999 5.81376 13.7079 5.77476 13.7429 5.76576C13.7769 5.75576 13.8359 5.79976 13.8359 5.76276C13.8299 5.69076 13.8159 5.58276 13.7759 5.53276C13.7539 5.50276 13.7189 5.48476 13.6839 5.48276H13.6829ZM8.91986 5.87976L8.91686 5.88276C8.91686 5.88276 8.91486 5.88276 8.91386 5.88476C8.90186 5.89476 8.88786 5.91476 8.85686 5.93476C8.80386 5.99476 8.79486 6.03776 8.79686 6.15776C8.80086 6.17076 8.89686 6.44076 8.97986 6.62976C9.03586 6.82676 9.08686 7.05276 9.04986 7.26576C8.91986 7.54776 8.65986 7.80076 8.40686 7.93876C8.27686 7.97876 8.16686 7.96476 8.13686 7.93676C8.06286 7.88676 8.06186 7.79676 8.06686 7.78276V7.77976C8.27886 7.63176 8.52186 7.51176 8.71186 7.11276C8.76786 6.95976 8.78586 6.86776 8.72986 6.63276C8.70786 6.54276 8.67986 6.47276 8.61986 6.40876H8.62186C8.65786 6.39176 8.75186 6.46076 8.76686 6.41876C8.74386 6.30476 8.66686 6.15376 8.58186 6.07576C8.50586 6.00576 8.42186 5.99876 8.35386 6.06176C8.27586 6.10576 8.25986 6.26176 8.29686 6.39776C8.33886 6.49976 8.45186 6.51776 8.53186 6.72476C8.53386 6.73876 8.55886 6.87976 8.51886 6.93776C8.48486 7.03976 8.06386 7.37176 8.03386 7.39176L8.03086 7.39376L8.02886 7.39576H8.02686H8.02486V7.39276C8.02286 7.38476 8.02486 7.36276 8.02486 7.32976C8.02186 7.26776 8.04786 7.12676 8.04486 7.10176V7.09976C7.90486 7.18976 7.85786 7.46476 7.83286 7.54676C7.47986 7.78976 7.07986 7.97076 6.84886 8.21676C6.72886 8.40676 7.67686 8.00276 7.78686 7.95376L7.78986 7.95676C7.81186 7.97976 7.81286 8.05976 7.87586 8.13276C7.97586 8.26576 8.18386 8.34776 8.38786 8.29676C8.72986 8.17376 8.92786 7.94076 9.12786 7.68176C9.15586 7.64176 9.20086 7.60776 9.24286 7.63976C9.37986 7.94776 9.77786 8.16776 10.2909 8.18976C10.4109 8.04576 10.3539 7.97476 10.3059 7.94476C10.2909 7.93476 10.0509 7.84076 10.0129 7.74776C9.98986 7.66176 10.0469 7.58476 10.1609 7.52776C10.4909 7.48776 10.8149 7.44276 11.1289 7.34176C11.1319 7.23576 11.1939 7.07876 11.2359 7.00976C11.2659 6.96276 11.2829 6.95776 11.2899 6.95176V6.94976H11.2919V6.94676V6.93676L11.2379 6.90476L10.1849 6.90076C10.1719 6.89576 10.1629 6.89076 10.1569 6.88576L10.1549 6.88276C10.1549 6.88276 10.1529 6.88276 10.1529 6.88076C10.1529 6.87876 10.1509 6.87876 10.1509 6.87876V6.87976V6.87776V6.87576V6.87376L10.1529 6.87076C10.1579 6.86476 10.1709 6.85776 10.1859 6.85076C10.4379 6.81776 10.8839 6.74476 10.9139 6.31576C10.9089 6.09176 10.8179 5.94576 10.5439 5.90576C10.3419 5.92076 10.1979 6.11576 10.2209 6.32976C10.2109 6.38676 10.2409 6.49976 10.1809 6.51276C9.79486 6.54876 9.37286 6.79076 9.35886 6.96476H9.35686H9.35486H9.35286C9.35286 6.96676 9.35086 6.96676 9.34986 6.96676H9.34586H9.34386H9.33986C9.31486 6.95876 9.28286 6.91676 9.28786 6.85976C9.27286 6.55976 9.17486 6.21976 9.02286 5.95976C8.96786 5.90476 8.94286 5.88276 8.92886 5.87976H8.92586H8.92286H8.92086H8.91986ZM9.92786 6.03776C9.90786 6.04176 9.88486 6.05976 9.87786 6.08976C9.87286 6.10976 9.88786 6.14176 9.86986 6.15176C9.85986 6.16176 9.81986 6.15576 9.82186 6.10176C9.82186 6.08476 9.80886 6.06576 9.80186 6.05476C9.79386 6.04976 9.78886 6.04876 9.77586 6.04876C9.75886 6.04876 9.75786 6.05276 9.74886 6.06676C9.74386 6.08076 9.73886 6.09676 9.73886 6.11176C9.73686 6.13176 9.72886 6.13776 9.71586 6.13976C9.69986 6.13976 9.70386 6.14276 9.69086 6.13476C9.68286 6.12676 9.67286 6.12276 9.67286 6.10876C9.67286 6.09376 9.66986 6.06876 9.66586 6.05876C9.65886 6.05176 9.64786 6.04876 9.63586 6.04476C9.56886 6.04476 9.56586 6.11976 9.56886 6.14876C9.56386 6.15376 9.56086 6.28876 9.65086 6.32676C9.77086 6.38476 10.0609 6.35076 9.99086 6.16376C9.99086 6.14676 9.98586 6.08876 9.98486 6.07376C9.97186 6.04376 9.94886 6.03376 9.92686 6.03676L9.92786 6.03776ZM13.9929 6.20476H13.9829C13.9829 6.20476 13.4209 6.60476 13.4079 6.61876C13.3519 6.66876 13.3799 6.84176 13.4079 6.82176C13.4479 6.83676 14.0129 6.45376 14.0019 6.40876C14.0269 6.41076 14.0389 6.21176 13.9919 6.20376L13.9929 6.20476ZM10.4589 6.26476C10.4809 6.26176 10.5109 6.26976 10.5389 6.28476C10.5819 6.31076 10.6089 6.34676 10.6039 6.37476V6.37876C10.6019 6.37876 10.6019 6.37876 10.6019 6.38076V6.38276C10.6019 6.38276 10.5999 6.38276 10.5999 6.38476C10.5999 6.38676 10.5969 6.38876 10.5949 6.39076C10.5749 6.41076 10.5289 6.40676 10.4849 6.38076C10.4429 6.35776 10.4179 6.32076 10.4199 6.29476V6.29176L10.4249 6.28176C10.4249 6.28176 10.4249 6.27976 10.4269 6.27876L10.4319 6.27276C10.4389 6.26776 10.4479 6.26276 10.4589 6.26276V6.26476ZM5.54086 6.36476C5.25086 6.37076 4.82386 6.74676 4.81286 6.95476L5.73286 6.51476C5.68286 6.43876 5.72986 6.37076 5.54086 6.36476ZM6.48386 6.49476C6.51186 6.49676 6.54186 6.51076 6.55786 6.55076C6.57186 6.58776 6.55786 6.62576 6.54086 6.64476V6.64776C6.52686 6.66376 6.48486 6.65776 6.45386 6.65776C6.41686 6.65576 6.39886 6.64976 6.37686 6.61976C6.36486 6.58476 6.39686 6.55176 6.41186 6.52776L6.41886 6.51776C6.42886 6.50776 6.44886 6.49976 6.46886 6.49776L6.48186 6.49576L6.48386 6.49476ZM13.8839 6.61176C13.8309 6.61776 13.7819 6.66676 13.8039 6.74476C13.7899 6.79076 13.8739 6.95176 13.8969 7.03676C13.9169 7.09676 13.8709 7.26976 13.9119 7.28676C13.9499 7.30676 14.0489 7.18676 14.0459 7.03276C14.0559 6.95276 14.0179 6.66276 13.9189 6.61476C13.9069 6.61176 13.8949 6.61076 13.8829 6.61176H13.8839ZM7.59986 6.89576C7.55386 6.89876 7.51286 6.92276 7.53186 6.98776C7.52886 7.03376 7.66186 7.09076 7.66886 7.19776C7.68686 7.24376 7.63886 7.38776 7.67886 7.39976C7.71486 7.41476 7.76486 7.29976 7.78386 7.19576C7.79386 7.13776 7.73786 6.93576 7.64386 6.89876C7.62886 6.89476 7.61386 6.89376 7.59886 6.89476L7.59986 6.89576ZM9.47986 7.15176H9.49186C9.60986 7.18376 9.78186 7.18776 9.93186 7.20176C10.0549 7.21176 10.1149 7.30576 10.0019 7.34676C9.88786 7.38476 9.77886 7.41676 9.77886 7.57876C9.79286 7.65876 9.78886 7.70076 9.77686 7.71876C9.77686 7.72176 9.77386 7.72376 9.77286 7.72476C9.77286 7.72476 9.77286 7.72676 9.77086 7.72676V7.72876H9.76786L9.76086 7.73176H9.75586C9.72886 7.73676 9.68986 7.71176 9.66086 7.69576C9.59086 7.64576 9.39586 7.52576 9.36786 7.26576C9.36386 7.20576 9.40786 7.15576 9.47786 7.15076L9.47986 7.15176ZM4.88586 7.35176C4.87886 7.35176 4.86586 7.37376 4.84586 7.39876C4.67186 7.67376 4.65586 8.08476 4.75186 8.20876C4.80186 8.26576 4.88586 8.29176 4.94786 8.27376C5.05786 8.22676 5.10486 8.00576 5.07786 7.92576C5.04286 7.86876 5.01386 7.85976 4.97786 7.90776C4.90086 8.06276 4.86786 7.95576 4.86286 7.86776C4.85086 7.70476 4.86686 7.55276 4.88486 7.43276C4.89486 7.37276 4.89486 7.34976 4.88486 7.34976L4.88586 7.35176ZM10.7829 7.71376C10.7699 7.71376 10.7569 7.71576 10.7429 7.72376C10.7399 7.72376 10.6189 7.80376 10.5799 7.86176C10.5559 7.87976 10.5599 7.89476 10.5659 7.92676C10.5839 7.96976 10.6159 7.95676 10.6539 7.93676C10.7039 7.92876 10.7269 7.96176 10.7239 8.02076C10.7009 8.09576 10.7339 8.12276 10.7339 8.12776C10.7339 8.13176 10.7809 8.17276 10.8369 8.14076C10.9539 8.09576 11.0269 8.05076 11.1919 8.01576C11.2349 8.01576 11.2319 7.89976 11.1639 7.89576C11.0739 7.89976 10.9939 7.90576 10.9039 7.97576C10.8489 7.98776 10.8399 7.95376 10.8269 7.92376C10.8129 7.84976 10.8589 7.79776 10.8489 7.74176C10.8509 7.74476 10.8209 7.71776 10.7819 7.71576L10.7829 7.71376ZM14.5589 7.85376L14.4789 7.86176C14.4429 7.86876 14.4309 7.88476 14.4239 7.92876C14.4269 7.99376 14.4669 7.99076 14.5089 8.01676C14.5329 8.04676 14.5489 8.07476 14.5069 8.12676C14.4669 8.16176 14.4399 8.18176 14.3999 8.21676C14.3829 8.24876 14.3699 8.29676 14.4279 8.31276C14.5329 8.34276 14.7759 8.18476 14.7759 8.18276C14.8159 8.15276 14.8019 8.09576 14.7989 8.09576C14.7749 8.06976 14.7229 8.08576 14.6889 8.08076C14.6719 8.08076 14.6189 8.07276 14.6429 8.02476C14.6649 7.99476 14.6729 7.97776 14.6879 7.94076C14.7029 7.90476 14.6879 7.88076 14.6299 7.86076C14.5999 7.85476 14.5799 7.85276 14.5569 7.85376H14.5589ZM13.1059 11.7138C13.3759 11.7268 13.6279 11.7168 13.8959 11.7298C13.9399 11.7658 13.9189 11.8498 13.8909 11.8638L13.8859 11.8658H13.8829H13.8789L13.6529 11.8598V11.8468C13.6309 11.7848 13.4809 11.7888 13.4449 11.8368V11.8398C13.4429 11.8398 13.4419 11.8428 13.4419 11.8438L13.4399 11.8488V11.8608C13.3199 11.8758 13.2149 11.8568 13.0969 11.8528C13.0619 11.8098 13.0669 11.7328 13.1069 11.7128L13.1059 11.7138Z" fill="white"/>
<path d="M19 1H2C1.17157 1 0.5 1.67157 0.5 2.5V13.5C0.5 14.3284 1.17157 15 2 15H19C19.8284 15 20.5 14.3284 20.5 13.5V2.5C20.5 1.67157 19.8284 1 19 1Z" stroke="black" stroke-opacity="0.1"/>
</g>
</g>
<defs>
<clipPath id="clip0_5988_19390">
<rect width="21" height="15" fill="white" transform="translate(0 0.5)"/>
</clipPath>
</defs>
</svg>
